<?xml version="1.0" encoding="UTF-8" standalone="no"?>
<!-- Created with Inkscape (http://www.inkscape.org/) -->

<svg
   xmlns:dc="http://purl.org/dc/elements/1.1/"
   xmlns:cc="http://creativecommons.org/ns#"
   xmlns:rdf="http://www.w3.org/1999/02/22-rdf-syntax-ns#"
   xmlns:svg="http://www.w3.org/2000/svg"
   xmlns="http://www.w3.org/2000/svg"
   xmlns:sodipodi="http://sodipodi.sourceforge.net/DTD/sodipodi-0.dtd"
   xmlns:inkscape="http://www.inkscape.org/namespaces/inkscape"
   id="svg3505"
   version="1.1"
   inkscape:version="0.91 r13725"
   width="1920"
   height="1920"
   viewBox="0 0 1920 1920"
   sodipodi:docname="lowercase-r.svg">
  <metadata
     id="metadata3511">
    <rdf:RDF>
      <cc:Work
         rdf:about="">
        <dc:format>image/svg+xml</dc:format>
        <dc:type
           rdf:resource="http://purl.org/dc/dcmitype/StillImage" />
        <dc:title></dc:title>
      </cc:Work>
    </rdf:RDF>
  </metadata>
  <defs
     id="defs3509" />
  <sodipodi:namedview
     pagecolor="#ffffff"
     bordercolor="#666666"
     borderopacity="1"
     objecttolerance="10"
     gridtolerance="10"
     guidetolerance="10"
     inkscape:pageopacity="0"
     inkscape:pageshadow="2"
     inkscape:window-width="1280"
     inkscape:window-height="751"
     id="namedview3507"
     showgrid="false"
     inkscape:zoom="0.2859375"
     inkscape:cx="875.60601"
     inkscape:cy="980.8255"
     inkscape:window-x="0"
     inkscape:window-y="1"
     inkscape:window-maximized="1"
     inkscape:current-layer="svg3505"
     showguides="false">
    <inkscape:grid
       type="xygrid"
       id="grid4466" />
  </sodipodi:namedview>
  <path
     style="fill:none;stroke:#000000;stroke-opacity:1"
     d="m -1070.2896,1606.8964 c -11.6224,-2.6505 -19.8152,-8.6674 -24.2124,-17.7819 -4.9696,-10.3012 -4.6392,-25.1353 0.769,-34.5198 1.3054,-2.2651 2.1641,-4.4026 1.9084,-4.75 -0.2558,-0.3475 -0.232,-0.4737 0.053,-0.2805 0.2848,0.1932 2.1335,-1.1725 4.1081,-3.0348 5.2465,-4.9481 10.9853,-7.5155 18.07,-8.0842 8.5338,-0.685 17.596,1.2558 24.9665,5.3471 3.5943,1.9951 7.5644,3.4207 9.5265,3.4207 2.8519,0 3.7905,-0.6471 6.1641,-4.25 4.3315,-6.5746 21.5552,-41.598 28.4485,-57.8484 l 6.19257,-14.5984 -3.1427,-8.9016 c -1.7285,-4.8959 -3.67297,-10.3682 -4.32127,-12.1607 -0.6482,-1.7925 -1.5549,-2.9175 -2.0147,-2.5 -0.4599,0.4175 -0.5199,0.2086 -0.1333,-0.4641 0.3865,-0.6728 -0.3968,-4.0478 -1.7407,-7.5 -1.344,-3.4523 -3.4222,-8.9768 -4.6183,-12.2768 -1.1961,-3.3 -2.776,-7.35 -3.511,-9 -0.735,-1.65 -2.3065,-5.7 -3.4923,-9 -1.9337,-5.3815 -5.112,-13.6033 -11.2903,-29.2064 -1.1338,-2.8636 -2.4317,-4.9777 -2.8841,-4.6981 -0.4524,0.2796 -0.5863,-0.1075 -0.2974,-0.8603 0.2889,-0.7527 -2.2263,-8.3136 -5.5893,-16.8019 -10.2253,-25.8094 -16.0206,-40.3312 -16.9342,-42.4333 -0.4781,-1.1 -1.6404,-4.1375 -2.5828,-6.75 -0.9424,-2.6125 -2.1289,-4.75 -2.6367,-4.75 -0.5077,0 -0.6827,-0.3891 -0.3888,-0.8646 0.5598,-0.9057 -8.2952,-23.0278 -12.663,-31.6354 -3.9425,-7.7696 -5.7004,-8.8913 -15.0048,-9.575 -10.9851,-0.8072 -11.7485,-1.7803 -11.7485,-14.9768 0,-5.893 0.4278,-10.0946 1.0682,-10.4903 0.5875,-0.3631 0.8698,-1.1772 0.6273,-1.8091 -0.3294,-0.8583 16.1257,-1.1319 65.0743,-1.082 l 65.51517,0.067 1.8575,2.2939 c 1.5167,1.873 1.8575,4.0252 1.8575,11.7286 0,8.6838 -0.1954,9.6301 -2.4545,11.8893 -2.0903,2.0903 -3.3962,2.4545 -8.8,2.4545 -7.1615,0 -8.7455,0.9982 -8.7455,5.511 0,3.0562 5.0567,22.226 12.8259,48.6224 2.1638,7.3516 4.9831,17.272 6.2651,22.0452 1.282,4.7733 2.7555,8.4162 3.2745,8.0955 0.5189,-0.3207 0.6331,-0.081 0.2537,0.533 -0.3794,0.6139 0.481,5.0709 1.9121,9.9045 3.4435,11.631 5.5979,19.2822 6.2057,22.0384 0.2729,1.2375 0.7812,2.249 1.1296,2.2479 1.14,0 8.2271,-19.0372 7.5166,-20.1868 -0.3807,-0.6161 -0.247,-0.845 0.2971,-0.5087 0.5594,0.3457 3.8595,-6.6489 7.594,-16.0955 16.7324,-42.3249 20.2272,-51.3292 23.3664,-60.2033 6.2154,-17.5702 4.2729,-22.0036 -9.6407,-22.0036 -6.3063,0 -8.2156,-0.3818 -10.3651,-2.0726 -2.5552,-2.0099 -2.6349,-2.3984 -2.6349,-12.845 0,-9.0392 0.2816,-11.0062 1.75,-12.2256 1.4807,-1.2296 9.2124,-1.4402 50.2386,-1.3687 l 48.4886,0.085 1.2466,2.4637 c 0.7201,1.423 1.2529,6.3137 1.2615,11.5787 0.012,7.7212 -0.3023,9.5181 -2.0579,11.75 -1.851,2.3533 -2.7526,2.6349 -8.4349,2.6349 -3.4993,0 -7.6291,0.4768 -9.1774,1.0595 -3.2535,1.2246 -10.3151,7.7693 -10.3151,9.5601 0,0.6676 -0.3412,1.3637 -0.7582,1.5471 -1.889,0.8304 -13.22,22.711 -31.7617,61.3333 -10.073,20.9818 -32.2442,67.9076 -34.4908,73 -0.9705,2.2 -4.0651,8.8722 -6.8769,14.8272 -2.8118,5.955 -5.1124,10.9747 -5.1124,11.1549 0,0.1802 -3.15,6.9383 -7,15.0179 -3.85,8.0796 -7,14.8211 -7,14.9811 0,0.1599 -2.8601,6.3047 -6.3557,13.6549 -3.4957,7.3502 -9.4081,19.889 -13.1387,27.864 -14.735,31.4993 -27.52937,57.217 -33.61737,67.574 -10.795,18.3645 -23.8903,29.8425 -37.8882,33.209 -7.6483,1.8395 -18.1539,2.2336 -24,0.9004 z"
     id="path4455"
     inkscape:connector-curvature="0" />
  <path
     style="fill:none;stroke:#000000;stroke-opacity:1"
     d="m -622.87373,1470.2432 c -8.5996,-3.4785 -41.49,-5.1104 -121.9159,-6.0489 -68.5042,-0.7994 -71.9294,-0.8852 -71.0353,-1.7793 0.2556,-0.2556 -0.1944,-1.4057 -1,-2.5559 -1.8701,-2.67 -1.8558,-5.7743 0.048,-10.3301 1.4786,-3.5386 15.4933,-26.16 18.2782,-29.503 0.7729,-0.9278 1.0667,-2.2349 0.6529,-2.9045 -0.452,-0.7313 -0.3352,-0.9596 0.2926,-0.5716 1.3475,0.8328 4.5679,-4.0359 3.651,-5.5197 -0.4251,-0.6877 -0.2466,-0.8484 0.4584,-0.4127 0.6841,0.4228 1.1545,0.078 1.1545,-0.8455 0,-0.8574 0.353,-1.559 0.7844,-1.559 0.9858,0 4.7116,-6.0811 4.7271,-7.7153 0.01,-0.6685 0.7348,-1.7935 1.619,-2.5 1.4971,-1.1965 9.8695,-13.1575 9.8695,-14.0999 0,-0.2338 2.9255,-4.8007 6.5011,-10.1486 3.5756,-5.348 6.2061,-10.201 5.8455,-10.7844 -0.3622,-0.586 -0.1858,-0.7704 0.3941,-0.4121 0.997,0.6162 2.7557,-1.9946 2.4181,-3.5897 -0.087,-0.4125 0.2468,-0.75 0.7424,-0.75 0.4957,0 1.7939,-1.4625 2.885,-3.25 1.0911,-1.7875 4.7237,-7.4745 8.0726,-12.6379 3.3488,-5.1633 5.8035,-9.8883 5.4547,-10.5 -0.3488,-0.6116 -0.2695,-0.7821 0.1761,-0.3789 0.8537,0.7726 18.8054,-25.8639 18.8296,-27.9392 0.01,-0.6633 0.3891,-0.9743 0.8475,-0.691 0.7598,0.4696 1.2462,-0.9883 0.9517,-2.853 -0.065,-0.4125 0.2976,-0.75 0.8061,-0.75 1.0256,0 12.7757,-18.1012 12.2359,-18.8495 -0.1868,-0.2589 0.3757,-0.871 1.25,-1.3603 0.8743,-0.4893 1.5896,-1.5422 1.5896,-2.3399 0,-0.7977 0.374,-1.4503 0.831,-1.4503 0.4571,0 1.4689,-1.2375 2.2484,-2.75 0.7796,-1.5125 1.6669,-2.975 1.9718,-3.25 0.3049,-0.275 1.5798,-2.1875 2.8331,-4.25 l 2.2788,-3.75 -20.3315,0.024 c -11.1824,0.014 -22.3566,0.49 -24.8316,1.0589 -6.5015,1.4944 -16.0726,5.9902 -15.3256,7.1989 0.3733,0.604 0.1412,0.7219 -0.5637,0.2862 -1.4964,-0.9248 -4.3185,1.2864 -3.4452,2.6994 0.3668,0.5934 0.1616,0.7434 -0.477,0.3487 -1.126,-0.6959 -3.0169,0.7425 -12.8569,9.7807 -4.8622,4.4662 -7.1512,7.814 -4.0816,5.9699 0.8597,-0.5165 0.8243,-0.2262 -0.1133,0.9299 -0.7498,0.9246 -1.691,1.4784 -2.0916,1.2309 -0.4005,-0.2475 -2.262,1.1649 -4.1366,3.1388 -2.2106,2.3276 -2.9692,3.749 -2.1585,4.0444 0.6875,0.2506 1.25,0.9232 1.25,1.4947 0,0.6273 -0.5944,0.5458 -1.5,-0.2058 -1.3888,-1.1526 -1.9438,-0.6913 -1.5936,1.3243 0.079,0.4534 -0.2757,0.5655 -0.7877,0.2491 -1.2405,-0.7667 -9.2719,8.8932 -8.3434,10.0352 0.3986,0.4903 0.3266,0.5683 -0.16,0.1734 -0.8082,-0.6559 -6.0296,4.9608 -6.8222,7.3387 -0.1849,0.5546 -2.1264,1.2415 -4.3146,1.5266 -3.4132,0.4446 -4.8511,-0.049 -10.1203,-3.4728 -4.8136,-3.128 -6.4354,-3.7405 -7.5,-2.8327 -1.1019,0.9396 -1.1325,0.8948 -0.1624,-0.2376 0.6577,-0.7677 0.9534,-2.608 0.6571,-4.0895 -0.3846,-1.9232 2.2401,-9.8192 9.1759,-27.6042 5.343,-13.7008 9.8052,-25.3605 9.9161,-25.9105 0.1108,-0.55 0.8798,-2.575 1.7089,-4.5 0.8291,-1.925 2.7522,-6.875 4.2736,-11 1.5214,-4.125 3.3976,-8.918 4.1694,-10.6511 0.7718,-1.7332 1.4032,-3.6457 1.4032,-4.25 0,-1.5211 0.8437,-1.4389 15.0016,1.4616 27.3055,5.5939 29.3251,5.7121 103.9984,6.0877 49.7429,0.2503 70.5837,0.6856 73.312,1.5313 2.8856,0.8944 4.1615,2.0179 5.25,4.6231 1.8886,4.5201 1.801,5.8406 -0.743,11.1974 -1.1754,2.475 -2.0441,5.0696 -1.9306,5.7658 0.1136,0.6962 -0.3773,1.1462 -1.0909,1 -0.7136,-0.1462 -1.185,0.2967 -1.0475,0.9842 0.1375,0.6875 -0.1561,1.25 -0.6524,1.25 -0.9503,0 -13.0976,18.4122 -13.0976,19.8527 0,0.4605 -0.9159,1.6662 -2.0353,2.6792 -1.1194,1.0131 -1.814,2.4184 -1.5436,3.123 0.2703,0.7046 -0.01,1.59 -0.6193,1.9676 -0.6726,0.4157 -0.8294,0.2311 -0.3973,-0.468 0.3924,-0.635 0.5129,-1.1545 0.2677,-1.1545 -0.7758,0 -16.1839,24.4076 -15.9222,25.222 0.1375,0.4279 -0.1385,0.778 -0.6134,0.778 -1.0521,0 -15.1366,21.1316 -15.1366,22.71 0,0.6179 -0.372,1.2733 -0.8266,1.4567 -1.6775,0.6764 -9.1668,13.0349 -8.5268,14.0705 0.3814,0.6172 0.194,0.7823 -0.4419,0.3893 -0.6108,-0.3775 -1.647,0.3355 -2.3187,1.5955 -0.6679,1.2529 -3.9066,6.328 -7.1972,11.278 -3.2905,4.95 -5.9916,9.5625 -6.0024,10.25 -0.011,0.6875 -0.2272,1.0426 -0.4807,0.789 -0.848,-0.8479 -16.2556,23.5712 -15.5713,24.6785 0.371,0.6003 0.2208,0.8111 -0.3338,0.4683 -0.5546,-0.3428 -3.4065,3.0752 -6.3375,7.5955 -2.9311,4.5203 -7.9532,12.1978 -11.1604,17.0611 -3.2072,4.8633 -6.31,9.7369 -6.8951,10.8302 -1.0503,1.9626 -0.7624,1.9828 22.7643,1.6045 22.1747,-0.3567 24.2581,-0.5482 30.0256,-2.7607 3.4086,-1.3076 5.9265,-2.8157 5.5955,-3.3514 -0.334,-0.5403 -0.086,-0.6551 0.5567,-0.2579 1.4966,0.925 9.2642,-3.4139 8.4551,-4.7229 -0.346,-0.5599 -0.1071,-0.6801 0.5475,-0.2755 1.7327,1.0709 7.5814,-3.375 6.2247,-4.7317 -0.5923,-0.5923 -1.077,-1.523 -1.077,-2.0681 0,-0.5452 0.6305,-0.1289 1.4011,0.925 1.3343,1.8247 1.7517,1.6252 8.75,-4.1816 4.0419,-3.3537 7.2364,-6.605 7.0989,-7.225 -0.1375,-0.62 0.1666,-1.0148 0.6759,-0.8773 0.5092,0.1375 2.724,-1.6625 4.9218,-4 2.1977,-2.3375 4.2306,-4.25 4.5175,-4.25 0.7894,0 11.062,-11.0086 11.6348,-12.4684 0.7075,-1.8029 6.0994,-6.1327 8.6179,-6.9202 1.1649,-0.3643 3.4149,-0.1351 5,0.5094 1.5852,0.6445 3.7426,1.2184 4.7944,1.2755 1.0517,0.057 2.0985,0.7787 2.3261,1.6037 0.3616,1.3106 0.2849,1.3143 -0.6079,0.029 -0.562,-0.8091 -1.271,-1.2218 -1.5757,-0.9171 -0.3047,0.3047 1.2458,2.0004 3.4456,3.7682 3.0135,2.4217 3.9996,3.9316 3.9996,6.1242 0,1.744 -6.0092,14.9892 -14.9963,33.0544 -8.2479,16.5794 -14.7034,30.6182 -14.3455,31.1973 0.358,0.5792 0.213,0.7824 -0.3221,0.4517 -0.535,-0.3306 -1.529,0.9369 -2.2088,2.8168 -1.9752,5.4622 -6.1953,12.4811 -7.4628,12.4121 -0.6405,-0.035 -2.1024,-0.4427 -3.2486,-0.9064 z"
     id="path4453"
     inkscape:connector-curvature="0" />
  <path
     style="fill:none;stroke:#000000;stroke-opacity:1"
     d="m -1704.1668,1469.1187 c -6.7542,-1.4102 -9.9092,-5.2593 -15.2884,-18.6519 -1.3798,-3.4354 -2.8792,-5.9104 -3.3319,-5.5 -0.4528,0.4104 -0.529,0.2315 -0.1695,-0.3976 0.5806,-1.0158 -0.578,-4.7922 -3.3305,-10.8562 -0.4993,-1.1 -4.0937,-9.875 -7.9875,-19.5 -3.8937,-9.625 -7.5015,-18.4 -8.0171,-19.5 -0.5157,-1.1 -2.3228,-5.6 -4.0158,-10 -1.693,-4.4 -3.6792,-9.35 -4.4137,-11 -0.7345,-1.65 -4.4019,-10.425 -8.1497,-19.5 -3.7478,-9.075 -7.1753,-16.65 -7.6165,-16.8333 -0.4412,-0.1834 -0.8022,-1.1616 -0.8022,-2.1738 0,-1.0123 -2.4881,-7.8373 -5.5291,-15.1667 -3.041,-7.3294 -7.2819,-17.6012 -9.4242,-22.8262 -16.0971,-39.259 -15.9035,-39 -29.1573,-39 -5.0162,0 -6.3761,-0.3957 -8.4349,-2.4545 -2.2766,-2.2767 -2.4545,-3.1747 -2.4545,-12.3893 0,-11.4488 1.3069,-14.2869 6.5,-14.1153 1.65,0.054 28.576,0.1832 59.8357,0.286 54.9219,0.1808 56.8833,0.2522 58.25,2.1212 1.745,2.3865 1.9602,19.2595 0.2924,22.9201 -1.2831,2.816 -3.4512,3.5988 -10.0212,3.6181 -2.9926,0.01 -4.8293,0.4994 -5.1673,1.3802 -0.2884,0.7515 0.7165,5.139 2.2332,9.75 1.5167,4.6109 7.2002,21.9634 12.6301,38.5611 5.4298,16.5977 10.2962,29.9156 10.8142,29.5955 0.518,-0.3202 0.6292,-0.076 0.2472,0.542 -0.3821,0.6182 1.1999,7.0787 3.5156,14.3566 3.7149,11.6754 4.3289,12.944 5.2172,10.7805 0.5537,-1.3487 1.8271,-4.34 2.8298,-6.6473 1.0027,-2.3074 1.8231,-4.8049 1.8231,-5.55 0,-0.7452 0.3898,-1.7824 0.8664,-2.3049 1.7183,-1.8841 10.1681,-25.585 9.5044,-26.6589 -0.3739,-0.6051 -0.2311,-0.8228 0.3173,-0.4838 0.8226,0.5084 7.05,-13.7667 7.7183,-17.6929 0.1044,-0.6129 0.7034,-2.0465 1.3312,-3.1856 0.6277,-1.1392 2.1202,-4.8997 3.3166,-8.3566 2.3703,-6.8495 2.2165,-11.7749 -0.6815,-21.8215 -1.7388,-6.0278 -3.8697,-8.6155 -6.5232,-7.9216 -1.0188,0.2664 -1.6313,0.1269 -1.3613,-0.3101 0.2701,-0.437 -2.6213,-0.9703 -6.4252,-1.1853 -10.1957,-0.5761 -11.063,-1.6578 -11.063,-13.7976 0,-6.7525 0.4259,-10.2364 1.4173,-11.5921 0.8719,-1.1925 1.0704,-2.3563 0.5158,-3.0245 -0.5776,-0.696 -0.3841,-1.0862 0.5387,-1.0862 0.7921,0 1.2532,0.3026 1.0246,0.6724 -0.2286,0.3699 25.1037,0.748 56.294,0.8404 31.1903,0.092 57.2237,0.2398 57.8521,0.3276 0.7719,0.1078 1.1912,3.9225 1.2926,11.7587 0.1297,10.0298 -0.1001,11.8675 -1.6986,13.5833 -1.0168,1.0914 -1.9734,2.4343 -2.1259,2.9843 -0.1525,0.55 -0.537,1.225 -0.8543,1.5 -0.3173,0.275 -0.2533,-0.062 0.1423,-0.75 0.5418,-0.9414 -0.7716,-1.25 -5.3206,-1.25 -5.6541,0 -6.0812,0.1643 -6.6856,2.5727 -0.436,1.7371 0.5009,5.7157 2.8846,12.25 1.9418,5.3225 4.1142,11.3648 4.8276,13.4273 0.7134,2.0625 1.6288,3.75 2.0341,3.75 0.4053,0 0.688,0.7875 0.6282,1.75 -0.11,1.7714 4.153,14.3285 5.1773,15.25 0.3057,0.275 0.6288,1.175 0.718,2 0.293,2.7084 8.7803,25.8445 9.3515,25.4915 0.3067,-0.1896 0.5684,0.4098 0.5816,1.3319 0.033,2.3382 6.7231,21.1766 7.5202,21.1766 0.3581,0 0.882,-0.7875 1.164,-1.75 0.2821,-0.9625 2.8498,-8.275 5.7061,-16.25 2.8563,-7.975 7.3867,-20.8 10.0676,-28.5 2.681,-7.7 5.8017,-16.475 6.935,-19.5 2.0997,-5.6043 6.0118,-19.9047 6.0118,-21.9756 0,-0.6478 -0.5413,-0.8173 -1.25,-0.3915 -0.9952,0.5979 -0.9944,0.4352 0,-0.7978 1.3748,-1.6985 0.8096,-6.364 -1.0809,-8.9218 -2.1325,-2.8851 -5.4569,-3.9133 -12.6525,-3.9133 -6.2168,0 -7.4199,-0.3087 -9.5657,-2.4545 -2.2559,-2.2559 -2.4546,-3.211 -2.4546,-11.8007 0,-5.1403 0.5202,-10.4483 1.1559,-11.7954 l 1.1559,-2.4494 48.0941,0.1223 c 26.4518,0.067 48.8502,0.4408 49.7742,0.8302 2.4143,1.0171 3.8199,5.8852 3.8199,13.2288 0,5.1996 -1.875,13.052 -3.1989,13.3972 -0.1656,0.043 -4.3511,0.4199 -9.3011,0.8372 -10.1551,0.856 -17.1904,3.5453 -16.7025,6.3847 0.1636,0.9522 -0.1793,1.6116 -0.762,1.4654 -0.944,-0.2368 -6.2565,11.6588 -21.9875,49.2342 -2.648,6.325 -6.5088,15.55 -8.5796,20.5 -2.0709,4.95 -4.7659,11.25 -5.9891,14 -1.2231,2.75 -3.43,8.15 -4.9042,12 -1.4742,3.85 -3.0821,7.9 -3.5731,9 -2.4985,5.5973 -5.2812,12.1622 -9.9608,23.5 -2.8377,6.875 -5.7584,13.85 -6.4905,15.5 -0.732,1.65 -3.6801,8.625 -6.5511,15.5 -2.871,6.875 -6.5205,15.5006 -8.1099,19.1679 -1.6068,3.7072 -2.626,7.4814 -2.2955,8.5 0.4414,1.3603 0.3465,1.4854 -0.3684,0.4857 -0.733,-1.0248 -1.2303,-0.5795 -2.0824,1.8649 -0.6157,1.7662 -0.8303,3.6791 -0.4769,4.2509 0.3728,0.6031 0.1578,0.74 -0.512,0.3261 -0.6349,-0.3924 -1.1545,-0.2525 -1.1545,0.311 0,1.6525 -5.7339,7.0418 -8.6865,8.1644 -3.0318,1.1527 -14.4142,0.9011 -13.6705,-0.3022 0.2613,-0.4228 0,-0.7687 -0.5777,-0.7687 -0.579,0 -2.3645,-1.8108 -3.9677,-4.024 -1.6032,-2.2132 -3.1073,-3.6757 -3.3424,-3.25 -0.235,0.4257 -0.2999,0.2367 -0.1442,-0.42 0.1558,-0.6567 -1.7154,-6.2817 -4.1582,-12.5 -2.4428,-6.2183 -5.3914,-13.781 -6.5524,-16.806 -1.161,-3.025 -2.889,-7.3 -3.84,-9.5 -0.951,-2.2 -2.7562,-6.8065 -4.0117,-10.2367 -1.3336,-3.6438 -2.714,-5.9702 -3.3201,-5.5955 -0.5925,0.3661 -0.7385,0.1572 -0.3404,-0.4869 0.5887,-0.9526 -7.5666,-23.9225 -11.9581,-33.6809 -1.2672,-2.816 -9.3931,-23.596 -15.1685,-38.7903 -1.4196,-3.7346 -2.8681,-6.4346 -3.2189,-6 -0.3508,0.4347 -2.723,5.7403 -5.2715,11.7903 -2.5486,6.05 -8.0397,19.0145 -12.2025,28.81 -4.1628,9.7955 -7.5687,17.9752 -7.5687,18.177 0,0.2018 -1.6392,3.8873 -3.6426,8.19 -2.0035,4.3026 -3.6535,9.0782 -3.6667,10.6123 -0.017,1.9694 -0.2945,2.4103 -0.9441,1.5 -0.6333,-0.8874 -0.7662,-0.5875 -0.4266,0.9621 0.2714,1.2382 0.1782,2.0565 -0.2072,1.8183 -0.3853,-0.2381 -2.9007,4.8237 -5.5898,11.2486 -2.689,6.425 -5.9017,13.9317 -7.1394,16.6817 -4.4134,9.8064 -8.2864,19.5 -7.791,19.5 0.8105,0 -5.1823,8.3508 -7.2262,10.0695 -3.2832,2.7608 -9.6127,4.5943 -13.2436,3.8362 z"
     id="path4451"
     inkscape:connector-curvature="0" />
  <path
     style="fill:none;stroke:#000000;stroke-opacity:1"
     d="m -2021.7896,1468.213 c -0.34,-0.55 -0.2968,-1 0.096,-1 0.3927,0 -0.091,-0.8894 -1.0747,-1.9764 -0.9837,-1.087 -2.248,-1.6925 -2.8095,-1.3455 -0.5614,0.347 -0.7235,0.1498 -0.3601,-0.4382 0.3634,-0.588 0.3204,-1.22 -0.096,-1.4045 -1.4871,-0.6595 -5.0052,-6.503 -10.2589,-17.0394 -2.9355,-5.8871 -5.7803,-10.4301 -6.3218,-10.0955 -0.5458,0.3374 -0.6697,0.099 -0.2781,-0.5345 0.3885,-0.6286 -0.2894,-3.2856 -1.5064,-5.9045 -1.2171,-2.6188 -2.2756,-4.9865 -2.3523,-5.2615 -0.1621,-0.5815 -3.1291,-7.0155 -8.7618,-19 -2.1972,-4.675 -5.1247,-10.975 -6.5055,-14 -1.3809,-3.025 -4.0165,-8.7395 -5.8569,-12.699 -1.8404,-3.9594 -4.5365,-10.0344 -5.9914,-13.5 -1.4548,-3.4655 -3.3638,-7.651 -4.2422,-9.301 -0.8784,-1.65 -1.6548,-3.225 -1.7254,-3.5 -0.2162,-0.8427 -1.6663,-4.241 -4.2671,-10 -1.3662,-3.025 -2.6349,-6.257 -2.8196,-7.1823 -0.3376,-1.6922 -9.4987,-23.0063 -13.8906,-32.3177 -2.3761,-5.0378 -4.6901,-10.7813 -4.5351,-11.2568 0.046,-0.1412 -1.1374,-2.6162 -2.6298,-5.5 -1.4924,-2.8838 -2.6234,-5.5807 -2.5134,-5.9932 0.11,-0.4125 -0.2499,-0.75 -0.7999,-0.75 -0.55,0 -1.0048,-0.7875 -1.0106,-1.75 -0.015,-2.5581 -8.1801,-13.0155 -12.4017,-15.8842 -3.1631,-2.1493 -4.6329,-2.4471 -11.3604,-2.3017 -12.882,0.2786 -13.6611,-0.6123 -13.6117,-15.5641 0.03,-9.0827 0.4747,-12.5622 1.5228,-11.9144 0.3979,0.2459 0.9365,0.1022 1.1969,-0.3193 0.3934,-0.6365 138.1215,-0.8678 139.6647,-0.2346 0.275,0.1128 0.7625,0.1769 1.0833,0.1423 0.9482,-0.1022 1.163,2.2674 1.163,12.826 0,5.5 -0.1304,10.6515 -0.2898,11.4477 -0.4305,2.1503 -4.5867,3.3908 -12.6331,3.7706 -5.1238,0.2419 -7.7401,0.8488 -9.1469,2.1219 -1.8692,1.6916 -1.8967,2.099 -0.5355,7.9341 2.3247,9.9651 8.5201,27.7441 9.4645,27.1605 0.4794,-0.2963 0.627,0.099 0.328,0.8777 -0.5685,1.4815 6.876,22.9603 11.2978,32.5963 1.4112,3.0751 2.6978,6.247 2.8592,7.0484 0.1613,0.8015 0.7331,2.3765 1.2707,3.5 0.5375,1.1236 3.6657,8.9813 6.9515,17.4617 l 5.9742,15.4188 2.6238,-5.7363 c 1.4431,-3.155 2.3645,-6.156 2.0475,-6.6689 -0.3169,-0.5129 -0.13,-0.9325 0.4154,-0.9325 1.057,0 2.6911,-3.8901 2.2717,-5.4084 -0.138,-0.4996 0.1281,-1.1746 0.5913,-1.5 1.5703,-1.103 14.2634,-31.9845 14.2634,-34.7017 0,-0.6728 0.3838,-1.3732 0.8529,-1.5566 0.4691,-0.1833 1.7849,-2.8083 2.924,-5.8333 1.1391,-3.025 4.8053,-12.4419 8.1471,-20.9264 3.4793,-8.8338 6.076,-16.9753 6.076,-19.0506 0,-4.2613 -1.9729,-9.0041 -3.75,-9.0152 -0.6875,0 -1.25,-0.422 -1.25,-0.9283 0,-1.1837 -3.967,-1.9602 -11.4412,-2.2396 -8.4866,-0.3173 -9.1118,-1.2047 -9.424,-13.3771 -0.2287,-8.9145 -0.022,-10.3363 1.8458,-12.711 l 2.1032,-2.6738 38.2081,0.5279 c 21.0144,0.2904 44.3647,0.1603 51.8894,-0.289 13.5685,-0.8102 18.0458,-0.2447 18.536,2.3408 0.1196,0.6306 0.2809,5.9632 0.3584,11.8503 0.1848,14.0282 0.3979,13.8193 -14.8589,14.5635 -16.8088,0.8198 -21.7966,3.4932 -27.8596,14.9327 -1.0215,1.9273 -2.7965,4.8523 -3.9445,6.5 -1.8426,2.6447 -3.5695,6.0262 -3.8279,7.4958 -0.048,0.275 -1.0335,1.85 -2.1892,3.5 -2.6713,3.8139 -7.47,13.4055 -7.9682,15.9265 -0.2093,1.0596 -0.7662,2.1846 -1.2375,2.5 -1.2811,0.8574 -7.2763,13.0711 -6.4247,13.0888 0.4041,0.01 0.2291,0.3459 -0.389,0.75 -1.4613,0.9554 -6.7714,11.6188 -19.2885,38.7347 -5.5856,12.1 -11.1324,23.8 -12.3262,26 -1.1938,2.2 -2.0924,4.106 -1.9969,4.2355 0.096,0.1295 -2.2876,5.4732 -5.2956,11.875 -3.008,6.4017 -5.469,11.7799 -5.469,11.9515 0,0.1716 -2.6321,5.8528 -5.8491,12.625 -10.5509,22.2109 -12.3319,26.1713 -13.1819,29.313 -0.1488,0.55 -0.9902,1.5482 -1.8698,2.2182 -0.8796,0.67 -1.2184,1.2325 -0.7529,1.25 1.2963,0.049 -6.1275,6.3534 -8.1063,6.8843 -3.0694,0.8235 -12.6766,0.6291 -14.6541,-0.2965 -1.3774,-0.6447 -1.7113,-0.5679 -1.191,0.2741 0.3977,0.6434 0.4981,1.1699 0.2231,1.1699 -0.275,0 -0.7781,-0.45 -1.118,-1 z"
     id="path4449"
     inkscape:connector-curvature="0" />
  <path
     style="fill:none;stroke:#000000;stroke-opacity:1"
     d="m -1390.519,1461.769 c -1.4461,-0.7502 -2.9236,-1.0697 -3.2833,-0.71 -0.3597,0.3597 -0.504,0.1233 -0.3207,-0.5254 0.1834,-0.6487 -0.5666,-1.9196 -1.6666,-2.8242 -1.1,-0.9046 -1.4676,-1.3784 -0.8168,-1.0528 0.8582,0.4293 1.3142,-2.2277 1.6603,-9.6759 0.2624,-5.6472 0.5925,-10.7338 0.7335,-11.3034 0.299,-1.2085 0.6845,-1.2685 12.0565,-1.8777 5.0479,-0.2704 10.2393,-1.1775 12.5,-2.1841 4.2193,-1.8788 4.8226,-2.0911 6.4734,-2.2775 0.6089,-0.069 0.8236,-0.8636 0.4772,-1.7664 -0.5055,-1.3173 -0.3527,-1.4114 0.7736,-0.4767 1.1152,0.9256 2.4368,0.3481 6.4335,-2.8111 4.8158,-3.8067 12.692,-12.39 12.7241,-13.8665 0.031,-1.442 1.6522,-3.2188 2.4733,-2.7113 1.0886,0.6728 7.093,-6.5519 6.3903,-7.6889 -0.2902,-0.4695 -0.098,-0.73 0.4274,-0.5789 1.2833,0.3693 9.3051,-8.7788 9.6282,-10.98 0.1408,-0.9598 0.784,-1.7452 1.4293,-1.7452 0.6452,0 3.8418,-3.3566 7.1036,-7.4591 4.9048,-6.169 5.7231,-7.7255 4.7315,-9 -1.0272,-1.3202 -0.969,-1.3615 0.4064,-0.2885 1.3814,1.0777 2.3307,0.3107 6.8075,-5.5 3.9138,-5.0801 5.0875,-7.3668 4.7392,-9.2334 -0.4389,-2.3518 -0.3898,-2.3809 0.9425,-0.5589 2.601,3.5571 1.4253,0.083 -1.4266,-4.2157 -1.5529,-2.3406 -3.1981,-3.9156 -3.656,-3.5 -0.4579,0.4156 -0.5735,0.2976 -0.2568,-0.2622 0.7547,-1.334 -3.7011,-8.7029 -4.6741,-7.7299 -0.4112,0.4112 -0.5977,0.2329 -0.4144,-0.3964 0.4667,-1.6016 -9.189,-16.4601 -10.2645,-15.7954 -0.4836,0.2989 -0.6241,-0.1215 -0.3123,-0.9341 0.3452,-0.8995 -0.4384,-2.1363 -2.0028,-3.1613 -1.4134,-0.9261 -2.3397,-2.0564 -2.0583,-2.5116 0.7311,-1.183 -13.5036,-21.0871 -14.5973,-20.4111 -0.4997,0.3088 -0.6122,-0.2107 -0.2501,-1.1545 0.4822,-1.2564 0.3038,-1.4968 -0.6659,-0.8974 -0.8031,0.4963 -1.0834,0.4285 -0.7122,-0.1722 0.7626,-1.2339 -8.8884,-14.8015 -10.573,-14.8638 -0.6767,-0.025 -1.1029,-0.6319 -0.9473,-1.3486 0.1555,-0.7168 -2.269,-4.4616 -5.3878,-8.3218 -7.1925,-8.902 -10.6942,-10.5536 -23.1209,-10.905 -5.0741,-0.1435 -9.0275,-0.4591 -8.7853,-0.7014 0.2422,-0.2422 -0.2187,-1.3814 -1.0243,-2.5316 -1.7731,-2.5315 -2.1055,-21.132 -0.3965,-22.1882 0.5875,-0.3631 0.8322,-1.2753 0.5437,-2.027 -0.2885,-0.7518 -0.025,-1.6758 0.5863,-2.0534 0.611,-0.3776 0.8416,-0.2508 0.5124,0.2818 -0.3837,0.6209 21.1829,0.931 60.0955,0.8642 51.5641,-0.088 60.9572,0.1133 62.444,1.3412 1.4674,1.2119 1.75,3.1716 1.75,12.1353 0,12.0271 -0.9624,14 -6.8288,14 -1.7442,0 -3.1712,0.45 -3.1712,1 0,0.55 0.5625,1.0069 1.25,1.0153 0.9676,0.012 0.9761,0.1893 0.038,0.7858 -0.6799,0.432 -0.9594,1.7382 -0.6364,2.9734 0.3169,1.2117 1.0445,1.9135 1.617,1.5597 0.6266,-0.3873 0.7386,-0.1544 0.2815,0.5853 -0.4498,0.7278 0.2006,2.2503 1.5955,3.7351 1.2951,1.3786 2.2132,2.5828 2.0402,2.676 -0.173,0.093 -0.013,0.9543 0.3548,1.9137 0.3681,0.9593 1.1417,1.4523 1.719,1.0954 0.6125,-0.3784 0.753,-0.1685 0.3373,0.504 -0.8783,1.4212 1.7669,5.4298 2.9035,4.3999 0.4513,-0.409 0.5172,-0.214 0.1464,0.4333 -0.8453,1.4757 5.7345,12.5808 6.8535,11.5669 0.4514,-0.4091 0.5377,-0.2471 0.1918,0.3599 -0.828,1.453 5.2027,10.931 6.2241,9.7822 4.1749,-4.6956 12.0062,-16.703 11.4651,-17.5786 -0.3797,-0.6144 -0.2423,-0.8397 0.3055,-0.5011 0.5475,0.3384 1.9671,-0.6988 3.1545,-2.305 2.4381,-3.2976 2.7485,-4.4584 0.9091,-3.3999 -0.7263,0.4179 -0.9009,0.3379 -0.4167,-0.191 0.4583,-0.5007 1.2458,-0.9103 1.75,-0.9103 0.5042,0 0.8764,-0.4095 0.8271,-0.9101 -0.049,-0.5006 0.6114,-1.3024 1.4682,-1.7819 2.1677,-1.2131 4.731,-6.9581 4.8417,-10.8516 0.1251,-4.3986 -2.2958,-5.9564 -9.2565,-5.9564 -8.0949,0 -9.2544,-1.5731 -9.9322,-13.4759 -0.2924,-5.1347 -0.1941,-9.1266 0.2184,-8.8709 1.2305,0.7627 0.8493,-1.1532 -0.5,-2.5124 -1.0028,-1.0102 -0.8696,-1.1143 0.6736,-0.5264 1.4305,0.545 1.7835,0.3679 1.3773,-0.6908 -0.4681,-1.2197 6.2584,-1.4143 46.9675,-1.3585 l 47.5137,0.065 1.8589,2.2957 c 1.5274,1.8863 1.859,4.0319 1.859,12.03 0,12.9195 -0.4285,13.3333 -14.6305,14.1262 -8.7564,0.4888 -10.922,0.9504 -13.5393,2.8854 -1.7136,1.267 -2.7589,1.6801 -2.3228,0.9181 0.4361,-0.762 -0.8321,0.1483 -2.8183,2.023 -1.9862,1.8746 -3.3343,3.8566 -2.9957,4.4045 0.3386,0.5478 0.1718,0.7217 -0.3707,0.3864 -1.0395,-0.6424 -11.0026,8.8647 -10.5727,10.0888 0.1375,0.3915 -0.098,0.7118 -0.5235,0.7118 -1.7789,0 -5.4061,4.4041 -4.6725,5.6734 0.4217,0.7296 0.3904,0.985 -0.069,0.5675 -1.1415,-1.0364 -5.5802,3.2737 -4.7934,4.6545 0.3462,0.6075 0.2564,0.7661 -0.1996,0.3524 -0.9975,-0.9048 -4.4915,2.0515 -4.4915,3.8002 0,0.6809 -0.6044,1.4699 -1.343,1.7534 -1.693,0.6496 -16.657,19.1802 -16.657,20.627 0,0.5894 -0.3654,1.0716 -0.812,1.0716 -0.4465,0 -1.8575,1.4142 -3.1354,3.1427 -1.278,1.7286 -1.8437,2.8462 -1.2572,2.4837 0.5865,-0.3624 1.392,-0.1322 1.79,0.5118 0.4435,0.7176 0.2908,0.9033 -0.3944,0.4798 -0.615,-0.38 -2.0648,0.2558 -3.2219,1.4129 l -2.1038,2.1038 2.7166,3.6826 c 1.4941,2.0255 3.4317,4.2608 4.3058,4.9674 0.8741,0.7065 1.5945,1.8315 1.6008,2.5 0.014,1.5243 16.1875,25.7698 18.3209,27.4653 0.865,0.6875 1.2554,1.25 0.8675,1.25 -0.3879,0 0.4859,1.8 1.9418,4 1.4559,2.2 3.0372,4 3.5142,4 0.4769,0 0.7546,0.3582 0.6171,0.796 -0.4656,1.4822 10.4745,17.1833 11.5218,16.536 0.6008,-0.3713 0.737,-0.1552 0.3237,0.5135 -0.3924,0.635 -0.162,1.1545 0.5121,1.1545 0.6742,0 0.9408,0.2849 0.5926,0.6332 -0.9636,0.9636 5.4471,9.3938 6.6011,8.6806 0.5906,-0.365 0.6962,-0.1188 0.2552,0.5947 -0.8215,1.3293 2.2263,5.3438 3.4724,4.5737 0.4188,-0.2589 1.0285,0.2251 1.3549,1.0755 0.3898,1.016 0.1921,1.2982 -0.5767,0.8231 -0.6435,-0.3977 0.09,0.9289 1.6302,2.9481 1.54,2.0191 3.2108,3.6711 3.7128,3.6711 0.502,0 1.2066,0.7875 1.5659,1.75 0.9092,2.4355 6.1061,7.8545 10.284,10.7234 2.6959,1.8513 5.0129,2.4546 10.0854,2.6258 3.6219,0.1223 7.179,-0.1446 7.9045,-0.5929 0.8447,-0.5221 1.0785,-0.426 0.6501,0.2672 -0.368,0.5954 0.1891,1.3549 1.2379,1.6878 3.1267,0.9923 4.3626,5.6807 3.9764,15.0842 -0.3288,8.0069 -0.5563,8.8014 -3.1616,11.0424 -2.714,2.3345 -3.1454,2.3901 -12.9999,1.674 -11.6083,-0.8435 -72.8068,-1.0123 -94.9406,-0.2619 l -14.7477,0.5 -2.7523,-2.9059 c -2.6871,-2.8372 -2.7404,-3.1248 -2.2523,-12.1493 0.579,-10.7032 1.8294,-12.8421 8.0931,-13.8437 2.2318,-0.3569 3.733,-1.0734 3.395,-1.6204 -0.3334,-0.5394 -0.1296,-0.9807 0.4529,-0.9807 0.5825,0 1.059,-0.675 1.059,-1.5 0,-0.825 -0.4765,-1.5 -1.059,-1.5 -0.5825,0 -0.7974,-0.4233 -0.4776,-0.9408 0.8471,-1.3705 -11.5115,-21.1475 -12.7404,-20.388 -0.601,0.3714 -0.7296,0.1486 -0.308,-0.5336 0.5331,-0.8625 -9.1738,-18.6621 -13.1235,-24.0646 -0.6043,-0.8266 -3.107,3.4165 -2.5483,4.3205 0.3112,0.5035 0.1179,0.6387 -0.4296,0.3003 -1.0533,-0.651 -5.3794,4.5486 -5.721,6.8761 -0.1107,0.7547 -0.5865,1.7227 -1.0573,2.1512 -0.4708,0.4284 -0.5322,0.2164 -0.1366,-0.4711 0.3956,-0.6875 0.5304,-1.25 0.2994,-1.25 -0.231,0 -2.2974,2.7357 -4.592,6.0794 -2.2945,3.3436 -3.5946,5.7852 -2.889,5.4258 0.7056,-0.3594 0.5914,-0.058 -0.2538,0.6706 -2.0579,1.7733 -5.7677,7.1213 -6.1534,8.8706 -0.1704,0.7733 -0.8765,2.0155 -1.5691,2.7604 -0.6925,0.7449 -0.9579,1.8807 -0.5897,2.5238 0.3683,0.6432 0.2965,0.8309 -0.1595,0.4173 -1.0812,-0.9807 -5.6887,7.1242 -4.8351,8.5053 0.3825,0.6189 0.1748,0.7606 -0.502,0.3423 -0.6767,-0.4182 -1.1545,-0.093 -1.1545,0.7865 0,2.245 1.3253,2.7022 9.15,3.1564 10.3611,0.6015 10.8501,1.2531 10.8501,14.4616 0,14.6906 0.027,14.6679 -16.8589,14 -18.5002,-0.7317 -59.161,-0.6101 -70.1912,0.2101 -7.2475,0.5389 -10.1839,0.3812 -12.1793,-0.6541 z"
     id="path4447"
     inkscape:connector-curvature="0" />
  <path
     style="fill:none;stroke:#000000;stroke-opacity:1"
     d="m -817.72533,1445.9199 c 0.3755,-0.9862 0.9347,-1.5412 1.2426,-1.2334 0.3079,0.3079 6e-4,1.1148 -0.6828,1.7932 -0.9876,0.9802 -1.1025,0.8654 -0.5598,-0.5598 z"
     id="path4445"
     inkscape:connector-curvature="0" />
  <path
     style="fill:none;stroke:#000000;stroke-opacity:1"
     d="m -1265.7254,1437.9199 c 0.3756,-0.9862 0.9347,-1.5412 1.2426,-1.2334 0.3079,0.3079 7e-4,1.1148 -0.6828,1.7932 -0.9876,0.9802 -1.1024,0.8654 -0.5598,-0.5598 z"
     id="path4443"
     inkscape:connector-curvature="0" />
  <path
     style="fill:none;stroke:#000000;stroke-opacity:1"
     d="m -697.67653,1406.03 c 0.2888,-0.4673 0.944,-0.5907 1.456,-0.2743 1.3084,0.8086 1.1611,1.124 -0.5251,1.124 -0.8008,0 -1.2197,-0.3824 -0.9309,-0.8497 z"
     id="path4441"
     inkscape:connector-curvature="0" />
  <path
     style="fill:none;stroke:#000000;stroke-opacity:1"
     d="m -1179.2896,1402.213 c -0.9013,-0.5825 -1.0246,-0.9755 -0.309,-0.9847 0.655,-0.01 1.4691,0.4347 1.809,0.9847 0.7673,1.2415 0.4211,1.2415 -1.5,0 z"
     id="path4439"
     inkscape:connector-curvature="0" />
  <path
     style="fill:none;stroke:#000000;stroke-opacity:1"
     d="m -1314.6866,1374.3797 c -0.2833,-0.4584 0.1203,-0.8334 0.897,-0.8334 0.7766,0 1.1802,0.375 0.8969,0.8334 -0.2832,0.4583 -0.6869,0.8333 -0.8969,0.8333 -0.2101,0 -0.6138,-0.375 -0.897,-0.8333 z"
     id="path4437"
     inkscape:connector-curvature="0" />
  <path
     style="fill:none;stroke:#000000;stroke-opacity:1"
     d="m -2074.9563,1366.757 c 0,-0.8008 0.3823,-1.2197 0.8496,-0.9309 0.4673,0.2888 0.5908,0.944 0.2743,1.456 -0.8086,1.3084 -1.1239,1.1611 -1.1239,-0.5251 z"
     id="path4435"
     inkscape:connector-curvature="0" />
  <path
     style="fill:none;stroke:#000000;stroke-opacity:1"
     d="m -1303.7896,1362.213 c 0.9954,-1.1 2.0349,-2 2.3099,-2 0.275,0 -0.3145,0.9 -1.3099,2 -0.9955,1.1 -2.035,2 -2.31,2 -0.275,0 0.3145,-0.9 1.31,-2 z"
     id="path4433"
     inkscape:connector-curvature="0" />
  <path
     style="fill:none;stroke:#000000;stroke-opacity:1"
     d="m -1306.6766,1344.03 c 0.2889,-0.4673 0.9441,-0.5907 1.4561,-0.2743 1.3083,0.8086 1.161,1.124 -0.5252,1.124 -0.8008,0 -1.2197,-0.3824 -0.9309,-0.8497 z"
     id="path4431"
     inkscape:connector-curvature="0" />
  <path
     style="fill:none;stroke:#000000;stroke-opacity:1"
     d="m -1329.2158,1309.802 c -0.9022,-1.0871 -0.8729,-1.583 0.1276,-2.1603 0.7142,-0.4121 0.965,-0.3811 0.5572,0.069 -0.4077,0.45 -0.2401,1.4222 0.3725,2.1603 0.6125,0.7381 0.8887,1.342 0.6137,1.342 -0.275,0 -1.0269,-0.6349 -1.671,-1.411 z"
     id="path4429"
     inkscape:connector-curvature="0" />
  <path
     style="fill:none;stroke:#000000;stroke-opacity:1"
     d="m -631.72533,1304.5061 c -0.5427,-1.4252 -0.4278,-1.54 0.5598,-0.5598 0.6834,0.6784 0.9907,1.4853 0.6828,1.7932 -0.3079,0.3078 -0.8671,-0.2472 -1.2426,-1.2334 z"
     id="path4427"
     inkscape:connector-curvature="0" />
  <path
     style="fill:none;stroke:#000000;stroke-opacity:1"
     d="m -1962.8308,1299.1465 c -0.3625,-0.5866 -0.4446,-1.281 -0.1825,-1.5432 0.2621,-0.2621 0.743,0.2179 1.0687,1.0666 0.6762,1.7621 0.1,2.072 -0.8862,0.4766 z"
     id="path4425"
     inkscape:connector-curvature="0" />
  <path
     style="fill:none;stroke:#000000;stroke-opacity:1"
     d="m -1360.4172,1266.463 c -1.2439,-1.5861 -1.2085,-1.6214 0.3776,-0.3776 0.9625,0.7549 1.75,1.5424 1.75,1.75 0,0.8231 -0.8212,0.2933 -2.1276,-1.3724 z"
     id="path4423"
     inkscape:connector-curvature="0" />
  <path
     style="fill:none;stroke:#000000;stroke-opacity:1"
     d="m -2023.2896,1261.213 c 0,-0.55 0.45,-1 1,-1 0.55,0 1,0.45 1,1 0,0.55 -0.45,1 -1,1 -0.55,0 -1,-0.45 -1,-1 z"
     id="path4421"
     inkscape:connector-curvature="0" />
  <path
     style="fill:none;stroke:#000000;stroke-opacity:1"
     d="m -1538.2107,1255.6297 c 0.048,-1.165 0.2849,-1.4019 0.6042,-0.6042 0.2888,0.7219 0.2533,1.5844 -0.079,1.9167 -0.3323,0.3323 -0.5687,-0.2584 -0.5253,-1.3125 z"
     id="path4419"
     inkscape:connector-curvature="0" />
  <path
     style="fill:#df28b6;fill-opacity:1;stroke:#000000;stroke-width:1.02276886;stroke-opacity:1"
     d="m -1826.7871,749.97556 c -29.6647,8.81383 -58.5226,20.23954 -86.4489,33.54912 -10.808,14.68006 7.8502,25.69568 18.223,32.75855 15.6219,8.10768 9.66,24.67696 9.8237,38.31761 1.0949,77.94918 -0.022,155.90586 0.3459,233.85806 -8.3564,12.6441 -45.832,9.1637 -30.355,32.093 18.3361,12.6665 39.6592,2.592 61.8776,3.9532 22.2183,1.3613 48.3318,2.0059 72.4277,0.5826 20.5786,0.8217 9.1889,-31.2661 -9.859,-28.2291 -19.0481,3.037 -16.2641,-19.8868 -15.9729,-38.6519 0.2912,-18.7651 -1.3946,-47.3056 0,-70.958 43.7518,11.70795 94.1112,-2.33563 123.0648,-37.80538 23.1525,-24.2663 30.7771,-59.29396 32.5588,-91.77408 1.5844,-28.58347 -5.9839,-59.39547 -28.2734,-78.82371 -31.6408,-38.48407 -95.2381,-37.36654 -130.6861,-4.82535 -8.663,-5.79991 -1.8316,-26.06995 -16.7262,-24.04462 z m 46.2612,45.29038 c 24.3642,-0.64745 38.7173,23.80971 43.3475,44.78354 6.203,33.73431 10.4601,70.22971 -2.5459,102.92678 -10.7033,22.85121 -45.6338,23.74445 -59.6117,3.65888 -14.0199,-19.62213 -6.568,-44.90012 -8.8172,-67.21059 -0.1621,-24.36978 -0.2081,-48.74011 -0.3292,-73.11009 7.2131,-7.43663 17.7118,-11.10575 27.9565,-11.04852 z"
     id="path4417"
     inkscape:connector-curvature="0"
     sodipodi:nodetypes="cccccczczzccccccccccccc" />
  <path
     id="path4411"
     style="fill:#4a7bb6;fill-opacity:1;stroke:#000000;stroke-width:1.02813375;stroke-opacity:1"
     d="m -1503.8547,944.33447 c 18.6241,-1.17512 17.1039,-23.28717 15.8564,-36.84124 -0.1902,-31.91113 -0.2664,-63.8483 -0.4344,-95.77013 -6.3915,-15.76643 -20.4653,-33.95521 -39.5964,-30.57765 -23.0269,7.24555 -31.0683,33.65444 -33.3598,55.27392 -3.4963,31.73354 -2.9004,68.16126 20.2611,92.92152 8.8562,10.48363 22.9458,20.6462 37.2731,14.99358 z m -12.6966,170.02083 c -14.924,-12.3265 2.1962,-25.1039 19.3173,-26.7024 13.1736,-21.4303 7.8681,-84.2352 8.8076,-113.89185 -18.8202,6.23282 -37.6761,14.85074 -58.0275,12.16857 -24.0204,0.0518 -48.4568,-8.12414 -65.1326,-25.93054 -26.3305,-23.79122 -29.2912,-62.06186 -26.508,-95.24444 4.2946,-49.87054 40.2557,-98.06569 90.283,-109.14262 24.331,-6.24714 49.6701,-2.64449 73.2989,4.61775 14.4489,4.60274 28.8686,-0.41645 42.1011,-6.11613 19.0676,-10.02 31.895,8.60199 24.2284,25.51475 -5.1927,49.17531 -2.0429,98.71722 -3.2002,148.05587 -0.087,50.20386 0.099,100.40984 0.8904,150.60824 5.9205,14.6737 15.8213,8.3008 25.5964,24.9946 9.7751,16.6936 -43.1433,17.9484 -131.6548,11.0682 z"
     inkscape:connector-curvature="0"
     sodipodi:nodetypes="ccccccccccccccccccczc" />
  <path
     style="fill:#782d33;fill-opacity:1;stroke:#000000;stroke-width:1.16469288;stroke-opacity:1"
     d="m -2064.6463,744.76229 c -72.8091,-1.54693 -142.1136,59.06267 -146.4774,132.51004 -4.3774,47.00342 14.5156,96.25787 52.0147,125.66407 33.4031,27.4372 79.9359,31.6261 121.2572,25.366 35.6641,-5.2688 69.4998,-23.5624 91.2636,-52.64889 37.5035,-47.28816 43.435,-119.61622 7.108,-169.2838 -27.9136,-39.71995 -76.5899,-63.98031 -125.1661,-61.60742 z m 0.9149,36.60501 c 24.2572,5.14002 34.9243,31.19263 39.2392,53.04793 8.6273,43.09827 6.2983,88.48059 -6.4528,130.49917 -6.0385,16.49259 -22.0079,33.55292 -41.1802,28.77483 -20.7987,-4.83464 -30.6222,-26.50119 -34.7688,-45.49587 -10.3598,-39.25674 -7.5413,-80.72544 -0.7837,-120.3195 4.3228,-18.20138 12.9276,-39.80908 32.6035,-45.47635 3.7302,-0.75681 7.5448,-0.97505 11.3428,-1.03021 z"
     id="path6443"
     inkscape:connector-curvature="0"
     sodipodi:nodetypes="ccccccccccccccc" />
  <path
     style="fill:#4a4207;stroke:#000000;stroke-width:4.48421669;stroke-opacity:1;fill-opacity:1"
     d="m 731.85126,1364.7593 c -44.32711,-39.3291 -27.02689,-137.973 40.59474,-135.7842 61.01779,28.9307 124.65961,-31.4191 107.65122,-94.8435 -3.02536,-91.0631 1.91973,-182.99237 0.0698,-274.40328 C 878.68129,782.90794 881.611,705.68625 876.95446,629.12089 864.14518,565.59332 806.22921,524.52323 749.03583,503.5792 687.62281,464.03207 735.83807,373.47332 799.7381,374.07184 c 78.96713,-37.08627 159.39468,-71.16808 240.0985,-103.92669 48.6882,-33.07883 147.2307,-42.71422 162.0375,19.38418 14.8068,62.09841 -10.2738,115.89732 27.1595,126.75756 27.8241,-50.84159 62.0336,-98.90795 108.8349,-134.63266 70.018,-54.21505 170.5283,-84.52836 254.8513,-47.46716 89.6705,48.06704 106.2866,185.09014 31.6212,254.15371 -63.3766,64.13913 -171.3413,74.68923 -246.1267,24.42568 -67.3866,-25.9748 -108.7399,47.76897 -116.3696,103.93409 -20.121,95.54139 -4.0679,193.67269 -9.9967,290.3466 -0.4677,94.98215 -0.3249,190.00755 3.7752,284.91975 17.854,52.697 81.3841,38.6109 124.1211,36.6894 51.1344,-9.5021 84.213,46.1973 68.7141,90.5819 -14.5658,65.4994 -83.8708,51.6399 -131.8098,45.6289 -193.3598,-6.1866 -387.13376,-0.829 -580.29125,1.1823 l -2.90371,-0.8313 -1.6024,-0.4588 z"
     id="path4401"
     inkscape:connector-curvature="0"
     sodipodi:nodetypes="cccccccczccccccccccccccc" />
  <path
     style="fill:none;stroke:#000000;stroke-opacity:1"
     d="m -1051.2896,993.92314 c -0.275,-0.285 -3.2,-0.7425 -6.5,-1.0167 -6.1541,-0.5113 -16.1732,-2.9595 -27.2871,-6.6678 -3.4579,-1.1538 -6.7899,-1.787 -7.4045,-1.4072 -0.6146,0.3798 -0.8568,0.269 -0.5383,-0.2464 0.3185,-0.5153 -1.8853,-2.2272 -4.8972,-3.8041 -6.795,-3.5576 -8.0433,-5.8873 -9.8165,-18.3197 -0.7647,-5.3615 -1.6577,-11.3232 -1.9844,-13.2482 -0.3268,-1.925 -0.7607,-5.075 -0.9644,-7 -0.2037,-1.925 -1.1162,-8.801 -2.0277,-15.2801 -2.208,-15.6932 -1.7494,-16.5839 10.1908,-19.7927 6.0952,-1.6379 8.9147,-1.9879 10.0935,-1.2527 1.8578,1.1586 10.0335,11.397 10.0953,12.6422 0.05,1.007 5.2576,8.0576 6.2905,8.5166 0.4125,0.1834 0.75,0.794 0.75,1.357 0,0.563 2.8917,5.1712 6.426,10.2405 7.605,10.9078 16.4498,19.419 23.7871,22.8902 9.8437,4.6568 24.9478,5.2328 32.6586,1.2454 8.0981,-4.1877 13.10397,-13.4855 13.11847,-24.3661 0.012,-8.5812 -1.44767,-12.1084 -7.19867,-17.4012 -5.6559,-5.2053 -13.2009,-8.5562 -37.4298,-16.6233 -23.4777,-7.8171 -32.4034,-11.9093 -42.8884,-19.6633 -20.2729,-14.9926 -28.164,-34.6721 -25.4673,-63.5125 1.5479,-16.5534 7.0258,-30.0941 16.9887,-41.9937 2.1751,-2.5979 3.6286,-5.0843 3.23,-5.5252 -0.3986,-0.441 -0.2151,-0.5107 0.4078,-0.1551 1.5019,0.8578 6.5733,-3.1839 5.7225,-4.5606 -0.375,-0.6067 -0.1983,-0.7866 0.4058,-0.4132 0.5884,0.3636 2.4104,-0.4668 4.0489,-1.8455 1.6384,-1.3787 3.2274,-2.5067 3.5311,-2.5067 0.3036,0 3.2695,-1.5927 6.5909,-3.5393 14.6128,-8.5643 27.1122,-11.4607 49.4588,-11.4607 27.72587,0 54.03047,6.4847 64.28067,15.8468 3.4747,3.1737 3.5286,3.3705 8.9333,32.6172 4.013,21.716 3.945,22.2103 -3.5181,25.5976 -2.5225,1.145 -5.3678,2.4994 -6.3228,3.01 -0.9551,0.5106 -3.41,0.9284 -5.4554,0.9284 -3.4052,0 -4.5295,-0.8453 -13.3272,-10.0198 -5.2845,-5.5108 -9.9892,-9.6733 -10.4549,-9.25 -0.4657,0.4234 -0.5714,0.2855 -0.2348,-0.3064 0.7291,-1.2823 -13.14327,-16.5764 -18.66617,-20.5791 -2.1312,-1.5446 -4.3383,-2.522 -4.9045,-2.172 -0.5663,0.35 -0.7412,0.1696 -0.3886,-0.4009 0.3636,-0.5883 -1.6248,-2.0357 -4.5955,-3.3449 -7.1527,-3.1522 -18.223,-3.1672 -24.9865,-0.034 -2.6125,1.2103 -4.75,2.5769 -4.75,3.0371 0,0.4601 -0.9334,1.0806 -2.0742,1.379 -1.1408,0.2983 -2.3183,1.4758 -2.6166,2.6166 -0.2984,1.1408 -0.8977,2.0742 -1.3318,2.0742 -1.1522,0 -3.9783,8.8431 -3.9718,12.4281 0.016,9.0011 4.7238,15.5599 14.3175,19.9481 5.6866,2.6011 16.0062,6.3114 19.4033,6.9762 0.9755,0.1909 2.4486,0.6207 3.2736,0.9549 0.825,0.3343 4.425,1.3218 8,2.1943 8.2465,2.0127 29.33857,8.7637 29.99997,9.6022 0.275,0.3487 2.75,1.8353 5.5,3.3036 7.2878,3.8912 10.5793,6.4865 18.1915,14.3443 8.1294,8.3915 13.5866,17.2146 16.5443,26.7483 1.8005,5.8037 2.1668,9.3926 2.1436,21 -0.028,13.6981 -0.4339,19.125 -1.5762,21.0452 -0.3124,0.5252 -0.8999,2.5298 -1.3056,4.4548 -2.1161,10.0419 -12.4364,27.0749 -21.2058,34.9991 -12.9672,11.7173 -27.0918,18.9381 -45.29177,23.1542 -8.0943,1.8751 -41.7282,3.875 -43,2.5568 z"
     id="path4397"
     inkscape:connector-curvature="0" />
  <path
     style="fill:none;stroke:#000000;stroke-opacity:1"
     d="m -798.02963,992.71594 c -12.366,-2.851 -23.1525,-8.6988 -31.1757,-16.9017 -2.4286,-2.4829 -4.8606,-4.2395 -5.4045,-3.9033 -0.5438,0.3361 -0.7188,0.1742 -0.3887,-0.3598 0.33,-0.5341 -0.7355,-2.9661 -2.3678,-5.4045 -4.7147,-7.0431 -7.3196,-16.9089 -7.3753,-27.9336 -0.026,-5.225 0.3434,-39.0875 0.8217,-75.25 l 0.8697,-65.75 -13.6518,0 c -14.5665,0 -19.0822,-1.0127 -21.7966,-4.888 -0.8087,-1.1546 -1.6674,-1.9022 -1.9082,-1.6614 -0.9299,0.9299 0.045,-9.8574 1.1153,-12.3348 0.6212,-1.4387 2.8472,-3.9658 4.9465,-5.6158 2.0993,-1.65 3.5761,-3.407 3.2817,-3.9045 -0.2944,-0.4975 -0.01,-0.5801 0.6313,-0.1835 1.391,0.8597 9.7196,-3.7607 18.3863,-10.2001 22.5475,-16.7527 60.6559,-51.85046 59.1471,-54.47426 -0.3914,-0.6807 -0.3504,-0.911 0.091,-0.5118 0.4416,0.3992 3.4433,-1.7188 6.6705,-4.7066 8.1815,-7.5746 15.6255,-8.5945 20.9718,-2.8733 l 2.3756,2.5422 -0.226,24.65586 c -0.1243,13.5608 -0.4894,26.5685 -0.8113,28.906 l -0.5852,4.25 32.9264,0 c 42.5903,0 40.7933,-1.0457 35.6742,20.7582 -1.3871,5.908 -3.0114,12.2478 -3.6095,14.0886 -1.8797,5.7844 -4.0786,6.1532 -36.6883,6.1532 l -28.8839,0 -0.6422,8.25 c -1.0029,12.8829 -0.7046,107.3861 0.3649,115.6249 1.1136,8.5776 3.9519,18.261 5.1379,17.5281 0.451,-0.2788 0.5771,0.1262 0.2802,0.9 -0.7755,2.0209 5.5008,9.8766 9.5898,12.0031 5.5362,2.8791 21.5475,2.0098 29.3438,-1.593 9.7687,-4.5144 12.5687,-3.7226 16.9293,4.7869 3.6445,7.1121 3.9734,8.9097 2.3438,12.8099 -3.2478,7.7731 -26.1901,19.0136 -48.4,23.7134 -12.9373,2.7377 -39.0363,3.5424 -47.9839,1.4796 z"
     id="path4395"
     inkscape:connector-curvature="0" />
  <path
     style="fill:none;stroke:#000000;stroke-opacity:1"
     d="m -547.54303,992.68194 c -14.9885,-2.982 -27.6189,-12.5879 -39.4044,-29.9685 -8.3784,-12.3561 -13.2749,-24.719 -15.4463,-39 -0.8684,-5.7112 -1.1612,-24.6719 -1.0235,-66.2717 0.1224,-36.9722 -0.1787,-59.652 -0.8238,-62.0477 -1.8577,-6.8992 -8.4909,-11.3094 -19.0486,-12.6648 -9.2961,-1.1935 -10,-2.0683 -10,-12.4281 0,-7.2369 0.351,-9.2999 1.9103,-11.2269 l 1.9104,-2.3608 47.8396,-0.6869 c 26.3119,-0.3778 48.8761,-0.7183 50.1427,-0.7568 3.0182,-0.092 5.8458,1.478 7.6655,4.2553 1.2285,1.875 1.322,4.5246 0.572,16.2148 -0.493,7.6855 -1.0414,41.1986 -1.2185,74.4736 -0.3291,61.8422 -0.037,68.3385 3.6493,81.0925 2.8504,9.8623 8.6226,18.2131 14.1999,20.5435 1.7955,0.7502 6.3571,1.364 10.137,1.364 5.7202,0 7.9469,-0.5347 13.2821,-3.1895 7.5559,-3.7598 15.7974,-11.7691 19.6718,-19.1176 l 2.7379,-5.1929 -0.3682,-66 c -0.3081,-55.2184 -0.6055,-66.4635 -1.821,-68.8376 -1.8057,-3.5269 -7.8003,-6.2227 -15.8108,-7.1101 -12.5631,-1.3919 -14.5,-3.1885 -14.5,-13.4501 0,-7.2532 1.6016,-12.0002 4.4088,-13.0675 1.1898,-0.4524 25.4264,-0.9784 53.8591,-1.169 l 51.6957,-0.3465 2.2088,2.2088 c 2.2004,2.2004 2.2038,2.2615 0.8844,15.9904 -1.6814,17.4958 -2.6545,138.4623 -1.2547,155.9702 0.6545,8.1861 1.5858,13.4401 2.8362,16 1.8565,3.8008 1.8784,3.8112 7.8617,3.7376 3.3,-0.041 8.7,-0.4299 12,-0.865 8.5662,-1.1295 10.1624,0.3815 11.7028,11.0782 1.8452,12.8127 4.6209,11.2604 -39.8201,22.27 -20.8355,5.1617 -38.6931,9.7968 -39.6837,10.3002 -0.9905,0.5034 -4.8489,1.1708 -8.5742,1.4832 -7.9091,0.663 -13.3631,-1.2939 -15.5448,-5.5776 -1.0748,-2.1105 -3.58,-18.287 -3.58,-23.1166 0,-0.6384 -3.1676,1.7304 -7.039,5.2638 -10.9574,10.0006 -27.5324,18.1147 -44.461,21.7654 -10.7098,2.3096 -31.2689,2.5266 -41.7534,0.4407 z"
     id="path4393"
     inkscape:connector-curvature="0" />
  <path
     style="fill:none;stroke:#000000;stroke-opacity:1"
     d="m -1323.2107,836.62974 c 0.048,-1.165 0.2849,-1.4019 0.6042,-0.6042 0.2888,0.7219 0.2533,1.5844 -0.079,1.9167 -0.3323,0.3323 -0.5687,-0.2584 -0.5253,-1.3125 z"
     id="path4391"
     inkscape:connector-curvature="0" />
  <path
     style="fill:#deb4f5;fill-opacity:1;stroke:#000000;stroke-width:0.96564758;stroke-opacity:1"
     d="m -1513.867,591.70523 c 8.007,-93.0115 3.5044,-197.57896 1.477,-280.54644 -1.9216,-20.75888 -34.7036,-14.87352 -33.8981,-37.0607 5.2882,-18.68277 26.986,-15.04087 45.4316,-20.33112 18.4457,-5.29026 46.324,-29.31972 63.9678,-16.18712 15.5059,11.54144 0.9823,16.55554 2.5063,57.93515 1.5238,41.37962 -1.1234,126.82084 -0.4166,190.44423 21.3075,-13.51049 35.7558,-35.09584 51.9117,-53.44359 1.5419,-13.86749 -14.8886,0.60075 -15.5189,-19.44391 -0.6301,-20.04466 19.3226,-17.58315 38.5857,-16.32437 19.2631,1.25877 54.3826,-3.88786 75.4862,0.87697 21.1036,4.76481 -4.1318,33.11133 -21.0883,28.696 -21.256,5.2152 -37.0922,20.78066 -53.8331,33.67459 -8.4093,10.52759 -24.3211,16.20548 -12.6164,33.02033 28.2903,25.63852 62.5586,98.09754 99.2957,99.1602 21.2222,-0.60643 18.8828,34.44627 -2.1336,30.19551 -18.1335,-3.3013 -36.2501,-1.4452 -54.5528,-1.89197 -18.7173,-0.2539 -37.5149,1.26615 -56.164,0.83011 -13.8577,-6.55258 -4.7648,-25.29562 5.0191,-29.77595 -9.9303,-15.64823 -21.3086,-30.76308 -31.9132,-46.27512 -8.3787,-8.11772 -13.9382,-22.19911 -23.1059,-27.48454 -2.0152,24.03966 -0.293,48.41599 -0.6272,72.58661 9.0018,13.63813 31.5945,6.01887 24.3826,25.65021 -8.238,22.4248 -35.9846,10.67119 -80.8329,10.67119 -2.5182,0 -33.5325,3.06983 -40.5278,-5.22529 -6.9954,-8.29513 8.5206,-28.63534 19.1651,-29.75098 z"
     id="path4379"
     inkscape:connector-curvature="0"
     sodipodi:nodetypes="ccczazcczzzcccccccccccsszc" />
  <path
     style="fill:#d0f5b4;fill-opacity:1;stroke:#000000;stroke-width:1.09077728;stroke-opacity:1"
     d="m -1050.7577,613.70138 c -14.8809,-14.81128 1.3712,-40.95067 21.0955,-31.68664 12.6654,-49.05673 8.2579,-103.87244 5.5697,-144.96386 -4.5161,-18.43782 -38.076,-16.07478 -31.5747,-37.34353 6.2357,-17.24306 26.7748,-17.68602 42.8643,-25.45032 16.08938,-7.7643 34.37466,-18.3402 54.01008,-20.75517 20.71898,-3.3767 7.50518,49.62659 25.57904,25.33935 30.91456,-26.33611 79.15711,-34.75986 115.45874,-14.74278 14.59445,6.47026 27.83279,38.09007 41.23865,14.04521 19.98651,-14.19688 43.69494,-25.24482 68.80379,-22.56197 20.08596,-2.73638 39.01042,5.43641 52.83073,19.76505 16.81417,13.2347 25.91887,33.58809 26.955,54.71419 2.31732,33.61178 0.0616,67.35924 0.0665,101.02709 0.29934,15.28432 -2.06521,31.27073 1.46162,46.09809 13.47931,8.72462 41.77447,4.27049 31.70963,29.74471 -13.55069,15.83419 -36.10477,3.92122 -57.87259,6.13403 -21.76772,2.21281 -49.118,0.56047 -73.66892,1.21497 -19.09121,-10.11901 -4.79982,-35.83066 10.41004,-36.6286 5.8689,-20.19425 1.587,-41.57667 3.32685,-62.28118 -0.0851,-30.52866 2.4602,-61.47472 -1.96605,-91.71687 -5.39978,-17.3988 -26.86052,-28.11166 -43.12969,-17.95794 -19.40492,7.55836 -24.50418,29.88387 -23.80359,47.61429 1.73183,43.8204 -14.61713,134.11454 21.44363,131.22996 12.252,13.60715 2.77686,35.76261 -16.98012,29.26612 -36.84087,-1.41787 -73.78491,-0.87239 -110.6205,0.95613 -13.90246,-14.02818 -3.61925,-37.49072 15.67517,-34.1442 10.43088,-17.65391 3.42875,-39.4959 5.79751,-58.89334 0.14874,-33.53698 1.7906,-67.38857 -2.88746,-100.67397 -4.48101,-21.07115 -31.18115,-26.61455 -47.46577,-15.55714 -24.1713,15.28465 -19.29501,46.23216 -19.87619,70.59682 -0.0538,33.17577 -1.56598,66.67646 2.22383,99.62226 8.33789,9.85137 29.58193,10.6911 20.99808,29.09939 -6.24687,18.45359 -32.8901,5.37478 -47.6996,8.25502 -29.9821,-1.15797 -60.08771,1.15749 -89.97321,0.63483 z"
     id="path4377"
     inkscape:connector-curvature="0"
     sodipodi:nodetypes="cccczcccccccccczcccccscccccccccccc" />
  <path
     style="fill:#eeca15;fill-opacity:1;stroke:#000000;stroke-width:1.15832961;stroke-opacity:1"
     d="m -557.09437,629.6322 c -8.21409,-8.56874 -8.61444,-35.11219 8.82298,-32.3975 16.93505,3.77627 20.77447,-10.09035 18.3897,-23.7526 0.009,-42.34432 0.90686,-84.73275 -0.61167,-127.04868 -2.88164,-10.87531 -11.15129,-19.16237 -22.17762,-23.46108 -8.97558,-0.75405 -16.82221,-21.7302 -5.34104,-27.7856 12.85028,-6.01795 25.66003,-14.19247 37.39542,-17.72575 9.31592,-6.2478 22.94155,-9.31181 34.11824,-15.70035 11.69441,-5.84476 33.43127,-16.21144 39.69598,1.89979 3.74062,7.60987 3.08311,27.03136 12.01733,14.57874 5.57728,-6.14449 15.34023,-9.00177 25.39003,-15.175 26.08293,-13.14289 56.8703,-11.92486 84.74558,-6.14337 16.5474,2.16198 31.59398,16.62543 39.79763,25.12711 8.20377,8.50167 12.13211,18.28981 13.9318,28.64506 4.92632,29.0932 2.3178,58.86264 2.91687,88.24218 0.16536,28.45875 -1.68118,56.89219 -1.81658,85.32907 -0.71642,21.28513 25.69121,7.29512 35.71649,16.60737 5.95035,14.05717 0.93874,35.36755 -18.55467,29.22012 -39.77907,-1.79043 -79.59818,-1.81323 -119.37438,0.0598 -19.53212,5.63219 -21.44062,-21.06492 -13.26233,-31.77139 12.83908,0.85688 24.90815,-3.42867 22.95094,-18.85958 3.14917,-43.64596 3.11767,-87.51753 2.1752,-131.24955 -0.0478,-13.21805 -3.23776,-23.9835 -10.22801,-33.31727 -11.55893,-13.9898 -33.36488,-15.38822 -48.43115,-6.73711 -7.0886,4.5981 -15.06588,12.64431 -16.18572,23.0072 -3.8013,35.79824 -1.6808,71.95687 -2.45022,107.90268 0.49756,18.17227 -1.24448,36.6134 1.36676,54.60745 7.97364,4.32266 21.17914,-0.2657 21.03412,20.32702 -0.14494,20.59275 -22.29996,14.46624 -35.59039,15.30807 -34.73317,-0.78234 -69.48119,0.19116 -104.19496,0.5938 l -2.24633,-0.3308 z"
     id="path4375"
     inkscape:connector-curvature="0"
     sodipodi:nodetypes="cccccccccccczcccccccccccccczcccc" />
  <path
     style="fill:#1f7b47;fill-opacity:1;stroke:#000000;stroke-width:0.86093175;stroke-opacity:1"
     d="m -2150.0005,619.56251 c -11.3014,-7.13413 -5.8983,-30.29804 10.421,-24.47106 19.4326,2.94473 14.632,-19.53356 15.3799,-31.84263 -0.038,-67.82334 0.4988,-135.67563 -1.1466,-203.47859 -0.6717,-14.85424 -11.3021,-22.68904 -26.4807,-29.16477 -15.1786,-6.47574 -4.5105,-22.08752 14.4379,-25.50981 18.9484,-3.42229 46.0591,-19.664 69.3917,-28.65894 8.2253,-3.22545 15.1165,4.78539 12.4968,12.41596 -1.1471,49.15153 -0.9993,98.33111 -0.9235,147.4935 11.9917,-12.2959 28.4302,-20.15839 45.6855,-21.82956 31.0451,-5.46672 65.3402,11.49786 77.0449,41.30292 5.6602,20.20648 2.533,41.67823 3.4949,62.43282 0.5738,24.96567 -1.0421,50.13504 1.1761,74.97944 10.3414,3.43618 31.4566,-2.28243 26.7254,16.13257 -0.5531,17.79965 -17.3971,8.84621 -35.8569,9.71582 -18.4598,0.86961 -50.3091,-0.24845 -75.4449,0.40732 -10.7088,-6.53235 -6.734,-30.39731 9.649,-25.0114 10.1902,-8.86649 3.7971,-26.53534 5.8579,-39.08863 -0.4794,-28.78441 1.948,-57.87268 -2.3157,-86.42914 -1.872,-16.72839 -27.6742,-19.54678 -36.6918,-17.32906 -9.0175,2.21772 -20.1602,3.63916 -18.8612,29.51958 1.299,25.88039 -0.7411,73.34507 0.854,109.95704 0.7506,9.76367 17.416,-1.60494 17.8372,9.58692 5.5953,16.77301 -8.2069,22.10846 -22.2345,18.49338 -30.1574,-0.24308 -60.3665,-0.42409 -90.4964,0.37632 z"
     id="path4373"
     inkscape:connector-curvature="0"
     sodipodi:nodetypes="cccczzcccccccczcccczzcccc" />
  <path
     style="fill:#b4eaf5;fill-opacity:1;stroke:#000000;stroke-width:1.0495553;stroke-opacity:1"
     d="m -1217.8507,589.33846 c 22.7324,4.59473 20.4734,-20.97481 20.1792,-35.90799 0.166,-83.37072 -1.4228,-199.38476 -0.7782,-250.12146 0.6446,-50.7367 -9.6469,-34.70393 -27.0256,-35.947 -17.3787,-1.24309 -25.8913,-25.76272 -8.967,-31.68153 35.664,-7.9303 70.3587,-20.10521 104.1417,-33.94922 7.8135,-4.72302 19.8978,0.76724 16.7375,10.47226 0.1293,117.15691 -0.1472,327.35376 0.5299,351.47282 0.6769,24.11909 5.2432,30.32871 23.1717,25.67718 18.4799,-6.8082 23.2717,28.82812 9.3662,29.53082 -49.6728,2.51017 -138.4421,2.07023 -148.9781,0.23787 -10.5361,-1.83234 -6.6852,-27.61871 11.6227,-29.78375 z"
     id="path4371"
     inkscape:connector-curvature="0"
     sodipodi:nodetypes="cczzccczcszc" />
  <path
     style="fill:none;stroke:#000000;stroke-opacity:1"
     d="m -404.74693,584.2822 c -0.3164,-0.512 -0.193,-1.1672 0.2743,-1.45601 0.4673,-0.28881 0.8497,0.13009 0.8497,0.9309 0,1.68617 -0.3154,1.83349 -1.124,0.52511 z"
     id="path4369"
     inkscape:connector-curvature="0" />
  <path
     style="fill:none;stroke:#000000;stroke-opacity:1"
     d="m -1291.2896,569.83554 c 0,-0.20765 0.7875,-0.99515 1.75,-1.75 1.586,-1.24387 1.6214,-1.2085 0.3775,0.37756 -1.3064,1.66575 -2.1275,2.19548 -2.1275,1.37244 z"
     id="path4367"
     inkscape:connector-curvature="0" />
  <path
     style="fill:none;stroke:#000000;stroke-opacity:1"
     d="m -1271.4172,412.4631 c -1.2439,-1.58606 -1.2085,-1.62143 0.3776,-0.37756 0.9625,0.75485 1.75,1.54235 1.75,1.75 0,0.82304 -0.8212,0.29331 -2.1276,-1.37244 z"
     id="path4365"
     inkscape:connector-curvature="0" />
  <path
     style="fill:none;stroke:#000000;stroke-opacity:1"
     d="m -655.36533,399.4631 -2.4243,-2.75 2.75,2.42431 c 1.5125,1.33338 2.75,2.57088 2.75,2.75 0,0.78428 -0.8098,0.14598 -3.0757,-2.42431 z"
     id="path4361"
     inkscape:connector-curvature="0" />
  <path
     style="fill:#ebeb72;fill-opacity:1;stroke:#000000;stroke-width:0.97682726;stroke-opacity:1"
     d="m -1816.7802,357.39845 c -12.2894,-3.30643 -24.2388,-11.28573 -27.4394,-24.00573 -5.7878,-13.02365 -1.8659,-29.15912 5.5914,-39.52435 7.4573,-10.36524 15.6266,-11.06609 23.4217,-13.6477 14.621,-3.67648 32.3683,-0.6912 42.6278,7.47419 10.2594,8.16538 14.1265,20.68572 12.0172,32.96985 -1.394,13.26587 -9.8466,25.57582 -21.2542,31.99433 -10.6073,5.42927 -23.2995,7.45273 -34.9645,4.73941 z m -52.7441,263.44975 c -5.8875,-11.00466 -2.8389,-30.9255 13.8589,-26.46133 12.425,2.29527 24.1487,-2.94438 20.665,-16.72249 0.033,-39.01944 -1.9127,-78.10892 -4.0108,-117.07724 -1.4769,-7.80348 -6.3275,-14.31024 -16.9829,-16.64434 -10.6555,-2.33411 -18.7842,-23.10667 -5.2111,-26.88957 28.3452,-8.53115 56.2824,-18.44539 84.7278,-26.61971 10.4044,-3.55087 21.3409,-1.53834 17.1626,11.53798 0.6249,61.87974 -0.2372,123.78644 1.3452,185.6486 2.1098,14.26447 23.5597,1.46479 31.0111,11.02923 4.1443,12.34324 0.5523,29.40784 -16.0851,24.2705 -40.5684,-1.67711 -81.1921,-1.115 -121.76,0.2341 -1.8389,0.15913 -3.7541,-0.70993 -4.7207,-2.30573 z"
     id="path4359"
     inkscape:connector-curvature="0"
     sodipodi:nodetypes="cczczccccccczcccccccc" />
  <path
     style="fill:#fd031e;fill-opacity:1;stroke:#000000;stroke-width:0.97475815;stroke-opacity:1"
     d="m -1645.3719,343.49565 c -16.6397,-4.23337 -27.6618,-16.25557 -29.7226,-33.42997 -2.8383,-17.42636 7.477,-34.23677 23.5189,-40.6545 16.5455,-6.36127 37.3619,-6.64147 50.9153,6.28712 21.5217,18.35488 11.4429,56.52209 -14.3688,65.44466 -9.4049,3.945 -20.4224,4.17175 -30.3428,2.35269 z m -71.3815,403.07075 c -19.8652,-1.37769 -42.296,-17.12142 -38.2082,-39.22533 2.5852,-18.56739 22.1189,-35.92993 41.1283,-27.5921 15.354,4.3525 13.6955,19.52256 29.6077,29.28164 15.9122,9.75909 15.4652,-27.53412 17.9417,-39.72637 1.9023,-70.34738 -2.5047,-163.98287 -1.4114,-211.11133 1.0932,-47.12848 -26.9764,-21.61237 -33.2001,-37.09112 -3.5601,-19.38523 20.597,-21.2828 35.4709,-24.84247 14.874,-3.55967 31.338,-10.42346 44.0355,-14.92853 12.6973,-4.50508 30.75,-12.88987 35.3043,1.08379 -2.9961,74.56632 -0.9719,149.29028 -3.8724,223.84036 -2.3454,30.44671 -3.4813,63.23927 -22.8532,88.61404 -6.8503,11.92772 -16.1251,19.40681 -27.4247,27.94012 -21.5085,16.75711 -49.0303,26.90604 -76.5184,23.7573 z"
     id="path4357"
     inkscape:connector-curvature="0"
     sodipodi:nodetypes="ccccccccczczczzccccc" />
  <path
     style="fill:#2d36b9;fill-opacity:1;stroke:#000000;stroke-width:1.00363624;stroke-opacity:1"
     d="m -413.84983,-215.87833 c -38.70466,-0.64368 -83.03674,14.38973 -99.81821,52.18375 -10.85703,26.55407 -6.95585,58.57194 7.84111,82.799822 5.25382,11.518885 24.48782,21.472355 26.17479,29.172439 -23.13269,12.20802 -45.69231,36.322912 -40.14219,64.508394 0.41951,17.056154 22.66497,30.383693 28.91386,36.256293 -21.05697,10.66712 -44.4205,26.86327 -47.36329,52.322572 -2.77334,19.17291 9.35541,36.692 25.30971,47.09046 15.95439,10.39856 34.49161,12.33435 52.29026,16.22525 51.50735,6.4952 107.48749,0.78187 151.11872,-29.42542 25.23656,-19.10694 41.77857,-52.628012 32.07835,-84.194182 -8.09729,-29.619889 -36.19447,-50.51187295 -65.39101,-56.2317499 -36.21058,-6.9294671 -73.24438,1.268083 -109.45153,-5.1582461 -20.53511,-5.295485 -3.1139,-35.367103 13.21056,-30.866065 37.33404,3.870748 79.54791,-3.456568 104.80598,-33.663648 21.0687,-23.609509 19.83645,-57.280319 14.36363,-86.371129 17.22696,2.25421 30.71324,26.04273 49.3508,12.06879 19.79875,-12.61905 15.39963,-47.80503 -7.8891,-53.93456 -21.2209,-5.965 -41.45577,5.41547 -60.00078,14.30337 -20.31716,-18.49296 -48.14495,-27.55449 -75.40166,-27.08614 z m -0.52298,29.10995 c 16.92931,-0.63502 24.42124,11.67918 24.36181,32.3359 -0.0592,20.65672 2.04154,58.960074 -12.61381,78.528342 -14.65536,19.568268 -38.76721,0.991402 -41.67083,-17.752488 -5.15337,-20.549334 -3.09769,-42.402744 0.76078,-63.010524 3.39909,-13.80781 13.26676,-29.95146 29.16205,-30.10123 z m 14.14745,245.646638 c 19.91427,-0.61638 44.71429,1.39286 55.82876,20.59039 9.04518,17.27869 0.24975,39.500052 -17.47847,47.020132 -22.81094,12.73391 -50.86521,13.03738 -75.6752,7.02131 -20.46115,-5.85805 -39.79416,-25.53099 -34.25682,-48.256222 3.39212,-20.40328 31.12018,-24.41073 44.11454,-25.46065 12.99425,-1.04991 18.26605,-1.19785 27.46719,-0.91496 z"
     id="path4355"
     inkscape:connector-curvature="0"
     sodipodi:nodetypes="ccccccczccccccccccccczzcccccccczc" />
  <path
     style="fill:#b92d88;fill-opacity:1;stroke:#000000;stroke-width:1.06945717;stroke-opacity:1"
     d="m -806.5456,152.20816 c -2.62628,-17.25804 5.29207,-30.87037 25.63397,-29.80311 20.34182,1.06735 10.90157,-16.12476 11.60505,-45.515053 0.70347,-29.390386 0.0757,-86.7457455 -2.19786,-130.061834 -17.07162,0.142467 -46.71555,2.795149 -38.05384,-23.471757 0.87668,-20.708278 23.41229,-18.166302 37.75025,-17.116493 2.62176,-14.786883 0.56147,-26.645193 4.0865,-48.261173 3.52503,-21.61599 18.7274,-57.4272 31.97068,-75.22962 13.24328,-17.80251 13.8475,-17.18094 35.63541,-32.73214 21.78781,-15.5511 70.9989,-27.31514 107.23981,-18.32926 19.80583,4.96041 36.18201,23.02118 32.93084,44.27818 -1.83426,23.25921 -29.52012,29.99959 -49.53785,27.13796 -20.01763,-2.86163 -24.7823,-20.29537 -36.47977,-31.73246 -21.4798,-15.24088 -38.59103,10.93508 -36.98539,37.16635 1.60574,26.23127 -0.71935,65.34886 -1.0366,98.023568 21.40861,0.179308 42.84621,-0.963663 64.23045,0.508839 12.57258,11.471441 -3.86213,31.059462 -15.25823,39.260986 -13.23562,9.525371 -37.87269,-3.981055 -48.8654,2.322597 0.25604,55.1822469 -0.75157,110.377882 0.8056,165.54849 5.7167,21.05305 43.54017,-3.79066 42.41512,23.19107 3.18312,21.69595 -19.86253,16.52207 -33.52444,16.24636 -43.80434,-0.19205 -87.74108,1.48294 -131.45973,-0.86699 0,0 -0.60302,-0.37634 -0.90457,-0.56451 z"
     id="path4349"
     inkscape:connector-curvature="0"
     sodipodi:nodetypes="czzccczzzcczczccacccccc" />
  <path
     style="fill:#1fbad0;fill-opacity:1;fill-rule:nonzero;stroke:#000000;stroke-width:0.96572989;stroke-opacity:1"
     d="m -1791.8349,-225.34922 c -1.9029,-0.0317 -4.1361,0.33752 -6.7524,1.18449 -21.4362,9.54755 -42.6204,19.7687 -65.0621,26.91633 -12.0432,6.46641 -37.9108,4.80627 -32.8087,25.00668 9.2337,11.68514 36.5395,9.31585 34.4011,31.8362 1.5641,87.113472 -3.3018,174.77424 -1.7304,262.17273 0.2614,14.54232 -6.3692,35.19357 8.3982,42.81811 13.288,7.48981 23.3428,-8.44354 35.2451,-10.84295 33.1636,12.75833 71.1414,16.62664 105.305,5.4564 12.6336,-4.95388 24.7215,-12.67165 35.5624,-21.21617 8.7967,-6.9333 17.2082,-14.75612 23.481,-24.03535 10.8276,-16.01697 20.2748,-33.993031 23.3935,-53.073194 3.8881,-23.787462 2.8859,-49.244603 -6.5803,-72.009187 -6.094,-15.525577 -18.0436,-31.531467 -29.9352,-40.946527 -19.7763,-15.676234 -45.7982,-22.502224 -70.7076,-17.989134 -16.4474,1.62184 -32.0647,7.237104 -45.7837,16.258324 -1.0198,-44.070784 1.2406,-88.225002 2.9024,-132.284902 -0.2441,-12.13989 6.166,-38.9934 -9.3283,-39.25185 z m 35.8881,199.156182 c 5.6737,0.06689 10.9722,2.401329 16.1157,4.504623 11.8923,5.821248 17.6431,18.2439536 23.4382,30.1507226 9.1801,24.0124534 9.7243,50.2621014 7.4842,75.4291694 -1.0235,11.499066 -4.2176,22.987273 -9.4527,33.318343 -5,10.09124 -14.9038,16.98154 -25.8427,19.16139 -13.6969,3.26755 -23.6744,-1.5695 -33.4978,-14.48527 -6.3538,-8.63612 -6.756,-19.6453 -7.1082,-29.92717 -0.8516,-36.893703 -0.7031,-73.803138 -1.0504,-110.704318 8.7832,-4.282388 18.251,-7.505901 28.1407,-7.392369 0.5952,-0.04435 1.1862,-0.06203 1.773,-0.05516 z"
     id="path4347"
     inkscape:connector-curvature="0"
     sodipodi:nodetypes="sccccscccssscccccssccsccccccs" />
  <path
     style="fill:#1fd02b;fill-opacity:1;stroke:#000000;stroke-width:1.09331393;stroke-opacity:1"
     d="m -1510.077,159.17936 c -29.879,-2.70729 -60.6917,-14.52408 -78.6662,-39.68239 -22.3451,-26.040289 -29.7277,-61.862806 -26.346,-95.383901 1.0044,-19.3494409 6.2255,-38.252735 13.2513,-56.159413 7.9871,-15.909277 17.7208,-31.0644 31.602,-42.512709 10.2604,-8.702934 21.2417,-17.252607 33.7231,-22.528356 32.7238,-14.666551 70.6719,-14.218371 104.5931,-4.011121 15.8243,5.062011 30.8139,14.325166 39.4065,28.916728 11.0993,15.269744 10.3301,41.346688 -7.0816,51.603456 -24.8579,13.4913806 -58.9086,-1.44154 -66.9389,-28.288077 -2.6718,-12.65247 -12.4313,-25.275651 -26.5948,-24.635933 -15.1895,-0.01494 -25.2546,14.021721 -30.745,26.568447 -7.4349,20.429529 -4.3297,42.6129343 -4.1046,63.844612 1.773,26.496945 10.24,53.666112 28.3565,73.534018 19.5098,18.887059 51.3756,23.882199 73.851,12.951119 11.6537,-5.667774 23.1362,-17.38816 37.3831,-15.05147 18.5719,4.776434 9.9116,27.1854 0.973,34.34659 -11.9437,9.56863 -23.5046,18.00142 -36.9374,23.90429 -21.9468,7.52721 -44.6551,13.85859 -68.0918,13.16882 -5.8823,0.0169 -11.764,-0.1995 -17.6333,-0.58471 z"
     id="path4339"
     inkscape:connector-curvature="0"
     sodipodi:nodetypes="ccccccccccccccscsccc" />
  <path
     style="fill:#efec26;fill-opacity:1;stroke:#000000;stroke-width:0.97054023;stroke-opacity:1"
     d="m -1142.9038,-250.71027 c -13.7044,-0.13367 -30.0977,7.0755 -43.7995,9.03138 -18.3688,2.62208 -43.2233,-5.65532 -54.1744,12.79799 -5.7557,23.54091 30.5548,17.46751 35.7161,35.92315 2.7536,29.9874 2.0356,64.8783 2.547,90.19223 0.5114,25.313918 -3.4816,10.536218 -26.7356,9.245298 -23.2538,-1.29093 -71.0471,9.4712 -92.6253,37.31053 -26.998,28.3486 -35.734,69.273994 -32.5782,107.33779 -0.3154,20.370476 7.6631,39.555745 20.5105,55.140862 15.9069,17.0926 34.7812,35.88739 59.4738,37.61447 25.5442,1.69384 54.0198,-0.10688 72.8236,-17.57337 18.8037,-17.46649 10.2778,16.98879 27.2042,16.77312 18.0273,-3.39012 35.8442,-8.28083 53.638,-12.86644 12.7988,-3.69496 36.6207,-3.57413 31.0339,-23.48226 -5.3878,-16.851715 -33.8611,-0.0273 -35.5976,-21.109082 -2.1435,-92.5659205 0.1813,-222.659828 0.3324,-277.742108 0.1511,-55.08227 11.626,-40.73426 -1.2527,-52.67702 -4.6131,-4.27781 -10.2869,-5.85577 -16.5162,-5.91654 z m -97.7277,185.899318 c 14.942,-0.0144 31.8555,3.54905 36.1778,24.98963 4.3223,21.440569 2.2156,57.673145 2.7917,86.517195 0.3914,18.277516 6.1787,45.4672 -15.5873,53.826647 -8.3626,1.90096 -17.3577,0.55582 -24.8734,-3.542694 -23.8481,-15.804492 -33.6548,-45.740938 -36.5111,-72.99591 -1.9722,-27.9026375 -2.3728,-61.726938 20.2258,-82.081908 5.2758,-4.69007 11.4677,-6.70692 17.7765,-6.71296 z"
     id="path4337"
     inkscape:connector-curvature="0"
     sodipodi:nodetypes="ssccssccccsccccsssszcccccs" />
  <path
     style="fill:#ef4426;fill-opacity:1;stroke:#000000;stroke-width:1.08777702;stroke-opacity:1"
     d="m -958.04356,-118.57336 c -33.09358,-0.34483 -67.06944,11.26907 -91.14294,34.302979 -47.9507,53.50493 -51.5703,143.209464 -3.4591,197.787871 24.3575,28.55009 64.59226,37.17346 100.58773,34.38354 26.74803,-1.33067 53.01838,-10.96301 73.42955,-28.45893 12.78126,-11.16098 24.9753,-24.45171 30.58208,-40.708612 4.63702,-13.454706 -11.72006,-21.542756 -22.62396,-16.559711 -14.06653,3.176143 -16.16476,20.294608 -30.2047,23.730299 -33.12527,15.430714 -87.68549,-0.219354 -97.0037,-25.780023 -9.3181,-25.56069 -2.7125,-57.8067962 -2.7125,-57.8067962 0.2935,-8.723496 11.03663,-6.860322 33.96224,-7.707262 22.92563,-0.84694 74.10717,4.962527 91.53193,0.21073 17.42476,-4.751806 14.95192,-24.6332688 10.25597,-38.5324888 -4.69593,-13.899229 -10.97076,-28.117744 -21.93204,-40.014307 -19.15373,-23.006959 -40.23742,-36.353649 -69.83694,-34.836229 l -0.72036,-0.006 c -0.11889,-8.3e-4 -0.47549,-0.004 -0.71326,-0.006 z m -5.76448,33.193609 c 17.13061,1.90066 39.33478,24.34562 37.25811,40.258426 -1.82908,15.782771 -29.96754,11.29573 -40.62887,12.459566 -10.66132,1.163828 -30.29237,3.039327 -32.26265,-9.434908 -1.97015,-12.474234 6.26693,-22.386348 12.70552,-31.598826 5.4216,-7.043567 13.82271,-12.117268 22.92789,-11.684258 z"
     id="path4333"
     inkscape:connector-curvature="0"
     sodipodi:nodetypes="cccccccczszzzccsccczzcc" />
  <path
     style="opacity:0.8;fill:#800080;fill-opacity:1;stroke:#000000;stroke-width:1.15278149;stroke-opacity:1"
     d="m -2042.4311,-105.32411 c -26.8313,-0.13495 -55.193,7.372899 -75.9851,15.686929 -8.6445,3.63148 -17.2025,7.742481 -25.3655,12.850751 -9.5032,5.94699 -20.0345,10.869057 -27.3139,20.611147 -6.3339,8.47677 -9.5905,16.965919 -12.8012,31.004605 -3.2107,14.038682 -1.4799,32.6622378 14.3496,38.143263 15.8297,5.481024 47.5313,-5.7811012 56.0046,-18.3126642 5.0463,-7.5051668 -4.1277,-36.7339878 4.3677,-49.3276838 6.2671,-9.29039 19.0246,-10.22984 27.9332,-9.79561 8.9085,0.43422 20.3554,0.94038 24.9848,12.3192 4.6294,11.378819 5.2571,26.443643 5.5777,42.4846608 0.3206,16.041026 -19.3466,20.2595762 -29.4187,26.0954232 -17.9594,10.405826 -40.7417,20.097561 -55.2438,27.143869 -14.5021,7.046292 -20.3431,12.108487 -28.5538,21.509255 -4.6562,5.330886 -8.9654,11.738176 -11.1955,19.159134 -5.1388,17.100911 -7.1398,36.827961 -3.8916,54.653151 2.0035,10.99458 7.0385,21.6589 13.8261,28.9929 5.0341,5.43946 11.8494,8.2797 18.4073,9.46644 22.537,4.0784 52.0289,-0.84114 67.9459,-8.7888 15.9169,-7.94766 20.7888,-7.91531 29.5877,-17.17327 8.799,-9.25795 13.8014,2.87621 19.293,7.84676 9.1159,8.25089 12.6113,12.5015 20.1945,14.37368 25.5498,6.30781 61.6055,2.54501 77.47,-12.50346 15.8647,-15.04847 22.0688,-22.17647 20.342,-35.7723 -1.7268,-13.59583 -22.1837,-15.83834 -28.4907,-5.10693 -6.307,10.73142 -17.721,28.15125 -19.254,-3.8723 -1.5329,-32.023547 -2.2108,-116.7207262 -3.0276,-145.285208 -2.2122,-58.573863 -39.233,-76.199182 -79.7427,-76.402942 z m -8.3091,142.683005 c -0.176,22.235257 -0.1803,77.008485 -0.1803,77.008485 0,0 -1.9161,3.26718 -2.7161,4.32136 -0.8001,1.05418 -4.8749,5.1928 -8.0891,7.4154 -3.2142,2.2226 -7.0964,3.725 -10.6018,3.9629 -3.5054,0.23788 -6.1051,-0.83631 -8.6945,-2.18938 -2.5895,-1.35308 -6.7152,-5.96537 -9.8081,-11.07072 -3.0929,-5.10534 -4.6288,-8.91601 -4.5514,-18.611394 0.096,-6.406446 2.0551,-17.587037 4.3304,-23.481659 6.911,-17.447222 24.8361,-33.800954 40.3109,-37.354992 z"
     id="path4343"
     inkscape:connector-curvature="0" />
  <path
     style="fill:none;stroke:#000000;stroke-opacity:1"
     d="m -675.83073,-193.85342 c -0.3626,-0.58659 -0.4447,-1.281 -0.1826,-1.54312 0.2622,-0.26213 0.7431,0.21781 1.0688,1.06653 0.6762,1.7621 0.1,2.07205 -0.8862,0.47659 z"
     id="path3515"
     inkscape:connector-curvature="0" />
</svg>
